<svg version="1.1" viewBox="0.0 0.0 960.0 480.0" fill="none" stroke="none" stroke-linecap="square" stroke-miterlimit="10" xmlns:xlink="http://www.w3.org/1999/xlink" xmlns="http://www.w3.org/2000/svg"><clipPath id="p.0"><path d="m0 0l960.0 0l0 480.0l-960.0 0l0 -480.0z" clip-rule="nonzero"/></clipPath><g clip-path="url(#p.0)"><path fill="#8e2137" d="m0 0l960.0 0l0 480.0l-960.0 0z" fill-rule="evenodd"/><g filter="url(#shadowFilter-p.1)"><use xlink:href="#p.1" transform="matrix(1.0 0.0 0.0 1.0 0.0 2.0)"/></g><defs><filter id="shadowFilter-p.1" filterUnits="userSpaceOnUse"><feGaussianBlur in="SourceAlpha" stdDeviation="2.0" result="blur"/><feComponentTransfer in="blur" color-interpolation-filters="sRGB"><feFuncR type="linear" slope="0" intercept="0.3137255"/><feFuncG type="linear" slope="0" intercept="0.08627451"/><feFuncB type="linear" slope="0" intercept="0.12941177"/><feFuncA type="linear" slope="0.55" intercept="0"/></feComponentTransfer></filter></defs><g id="p.1"><path fill="#000000" fill-opacity="0.0" d="m500.8609 320.9567l308.9449 0l0 45.5748l-308.9449 0z" fill-rule="evenodd"/><path fill="#eef7f1" d="m530.5468 352.53268l0 -13.53125l-4.890625 9.84375l-2.890625 0l-4.890625 -9.84375l0 13.53125l-5.25 0l0 -22.71875l5.703125 0l5.890625 11.875l5.921875 -11.875l5.65625 0l0 22.71875l-5.25 0zm16.93518 0.3125q-2.15625 0 -3.828125 -0.6875q-1.65625 -0.6875 -2.828125 -1.859375q-1.15625 -1.1875 -1.765625 -2.734375q-0.609375 -1.5625 -0.609375 -3.25q0 -2.4375 1.0625 -4.4375q1.078125 -2.0 3.09375 -3.234375q2.015625 -1.234375 4.875 -1.234375q2.84375 0 4.84375 1.21875q2.0 1.21875 3.046875 3.1875q1.0625 1.96875 1.0625 4.265625q0 0.453125 -0.046875 0.890625q-0.046875 0.421875 -0.078125 0.75l-12.421875 0q0.09375 1.109375 0.625 1.890625q0.53125 0.765625 1.359375 1.171875q0.84375 0.390625 1.765625 0.390625q1.15625 0 2.15625 -0.546875q1.015625 -0.546875 1.390625 -1.46875l4.359375 1.21875q-0.640625 1.3125 -1.8125 2.328125q-1.171875 1.0 -2.75 1.578125q-1.578125 0.5625 -3.5 0.5625zm-3.71875 -10.265625l7.296875 0q-0.125 -1.0625 -0.609375 -1.84375q-0.484375 -0.78125 -1.28125 -1.203125q-0.796875 -0.4375 -1.75 -0.4375q-1.0 0 -1.78125 0.4375q-0.78125 0.421875 -1.265625 1.203125q-0.484375 0.78125 -0.609375 1.84375zm13.953003 4.921875q0 -1.65625 0.921875 -2.90625q0.9375 -1.25 2.5625 -1.96875q1.640625 -0.71875 3.75 -0.71875q1.015625 0 2.0 0.1875q1.0 0.171875 1.75 0.484375l0 -0.734375q0 -1.375 -0.84375 -2.109375q-0.828125 -0.734375 -2.53125 -0.734375q-1.40625 0 -2.640625 0.484375q-1.21875 0.46875 -2.59375 1.359375l-1.546875 -3.25q1.671875 -1.09375 3.46875 -1.640625q1.8125 -0.546875 3.828125 -0.546875q3.78125 0 5.875 1.8125q2.09375 1.8125 2.09375 5.234375l0 4.375q0 0.78125 0.234375 1.09375q0.25 0.296875 0.859375 0.359375l0 4.25q-0.640625 0.125 -1.203125 0.1875q-0.5625 0.0625 -0.96875 0.0625q-1.453125 0 -2.203125 -0.5625q-0.75 -0.578125 -0.9375 -1.578125l-0.09375 -0.734375q-1.125 1.4375 -2.6875 2.1875q-1.546875 0.75 -3.234375 0.75q-1.671875 0 -3.0 -0.703125q-1.328125 -0.703125 -2.09375 -1.90625q-0.765625 -1.21875 -0.765625 -2.734375zm10.171875 0.640625q0.359375 -0.28125 0.578125 -0.625q0.234375 -0.359375 0.234375 -0.6875l0 -1.5q-0.640625 -0.25 -1.4375 -0.390625q-0.78125 -0.15625 -1.453125 -0.15625q-1.40625 0 -2.34375 0.625q-0.921875 0.625 -0.921875 1.65625q0 0.578125 0.3125 1.0625q0.328125 0.46875 0.890625 0.765625q0.5625 0.28125 1.328125 0.28125q0.765625 0 1.53125 -0.28125q0.78125 -0.296875 1.28125 -0.75zm9.5802 -18.96875l5.109375 0l0 17.375q0 1.0625 0.375 1.515625q0.390625 0.4375 1.09375 0.4375q0.484375 0 0.984375 -0.140625q0.5 -0.140625 0.875 -0.34375l0.671875 3.84375q-0.953125 0.453125 -2.203125 0.703125q-1.25 0.25 -2.34375 0.25q-2.171875 0 -3.375 -1.15625q-1.1875 -1.171875 -1.1875 -3.3125l0 -19.171875zm17.844727 23.359375l0 -22.71875l5.25 0l0 22.71875l-5.25 0zm7.969055 -8.421875q0 -2.453125 0.953125 -4.421875q0.96875 -1.96875 2.625 -3.125q1.671875 -1.15625 3.84375 -1.15625q1.765625 0 3.203125 0.859375q1.4375 0.84375 2.171875 2.21875l0 -9.3125l5.125 0l0 17.65625q0 0.78125 0.25 1.09375q0.265625 0.296875 0.84375 0.359375l0 4.25q-1.34375 0.25 -2.1875 0.25q-1.3125 0 -2.125 -0.5625q-0.8125 -0.578125 -1.0 -1.609375l-0.09375 -0.859375q-0.90625 1.5625 -2.4375 2.328125q-1.53125 0.765625 -3.234375 0.765625q-1.71875 0 -3.1875 -0.640625q-1.453125 -0.65625 -2.53125 -1.84375q-1.0625 -1.1875 -1.640625 -2.78125q-0.578125 -1.609375 -0.578125 -3.46875zm12.828125 2.078125l0 -3.515625q-0.3125 -0.859375 -0.90625 -1.5q-0.59375 -0.640625 -1.34375 -1.015625q-0.75 -0.390625 -1.515625 -0.390625q-0.828125 0 -1.53125 0.359375q-0.6875 0.34375 -1.203125 0.96875q-0.5 0.625 -0.78125 1.421875q-0.265625 0.796875 -0.265625 1.703125q0 0.921875 0.296875 1.703125q0.3125 0.78125 0.859375 1.375q0.546875 0.59375 1.28125 0.921875q0.734375 0.3125 1.59375 0.3125q0.546875 0 1.0625 -0.171875q0.515625 -0.1875 0.96875 -0.46875q0.46875 -0.28125 0.84375 -0.734375q0.390625 -0.453125 0.640625 -0.96875zm17.099915 6.65625q-2.15625 0 -3.828125 -0.6875q-1.65625 -0.6875 -2.828125 -1.859375q-1.15625 -1.1875 -1.765625 -2.734375q-0.609375 -1.5625 -0.609375 -3.25q0 -2.4375 1.0625 -4.4375q1.078125 -2.0 3.09375 -3.234375q2.015625 -1.234375 4.875 -1.234375q2.84375 0 4.84375 1.21875q2.0 1.21875 3.046875 3.1875q1.0625 1.96875 1.0625 4.265625q0 0.453125 -0.046875 0.890625q-0.046875 0.421875 -0.078125 0.75l-12.421875 0q0.09375 1.109375 0.625 1.890625q0.53125 0.765625 1.359375 1.171875q0.84375 0.390625 1.765625 0.390625q1.15625 0 2.15625 -0.546875q1.015625 -0.546875 1.390625 -1.46875l4.359375 1.21875q-0.640625 1.3125 -1.8125 2.328125q-1.171875 1.0 -2.75 1.578125q-1.578125 0.5625 -3.5 0.5625zm-3.71875 -10.265625l7.296875 0q-0.125 -1.0625 -0.609375 -1.84375q-0.484375 -0.78125 -1.28125 -1.203125q-0.796875 -0.4375 -1.75 -0.4375q-1.0 0 -1.78125 0.4375q-0.78125 0.421875 -1.265625 1.203125q-0.484375 0.78125 -0.609375 1.84375zm31.203003 9.953125l-5.125 0l0 -9.4375q0 -1.671875 -0.625 -2.421875q-0.625 -0.75 -1.640625 -0.75q-0.703125 0 -1.4375 0.390625q-0.734375 0.375 -1.328125 1.046875q-0.59375 0.671875 -0.921875 1.546875l0 9.625l-5.109375 0l0 -16.796875l4.609375 0l0 2.8125q0.640625 -0.984375 1.59375 -1.6875q0.953125 -0.71875 2.203125 -1.078125q1.25 -0.375 2.71875 -0.375q1.640625 0 2.640625 0.59375q1.015625 0.59375 1.53125 1.5625q0.53125 0.953125 0.703125 2.0625q0.1875 1.09375 0.1875 2.15625l0 10.75zm14.239563 -0.890625q-0.703125 0.28125 -1.5625 0.578125q-0.84375 0.28125 -1.765625 0.453125q-0.921875 0.171875 -1.828125 0.171875q-1.28125 0 -2.359375 -0.421875q-1.0625 -0.4375 -1.6875 -1.421875q-0.625 -1.0 -0.625 -2.625l0 -8.765625l-2.140625 0l0 -3.875l2.140625 0l0 -5.34375l5.125 0l0 5.34375l3.421875 0l0 3.875l-3.421875 0l0 7.0q0 0.828125 0.40625 1.203125q0.421875 0.359375 1.0625 0.359375q0.546875 0 1.171875 -0.1875q0.625 -0.1875 1.0625 -0.40625l1.0 4.0625zm1.9890137 0.890625l0 -16.796875l5.109375 0l0 16.796875l-5.109375 0zm0 -18.71875l0 -4.640625l5.109375 0l0 4.640625l-5.109375 0zm9.71814 7.171875l-2.140625 0l0 -3.875l2.140625 0l0 -1.375q0 -1.5 0.515625 -2.75q0.515625 -1.25 1.453125 -2.171875q0.953125 -0.9375 2.28125 -1.453125q1.328125 -0.515625 2.984375 -0.515625q1.21875 0 2.328125 0.28125q1.125 0.265625 2.21875 0.78125q1.09375 0.515625 2.171875 1.25l-1.984375 3.875q-0.921875 -0.875 -2.09375 -1.359375q-1.171875 -0.5 -2.3125 -0.5q-0.78125 0 -1.34375 0.3125q-0.546875 0.296875 -0.828125 0.84375q-0.265625 0.546875 -0.265625 1.21875l0 1.5625l9.28125 0l0 15.421875l-5.125 0l0 -11.546875l-4.15625 0l0 11.546875l-5.125 0l0 -11.546875zm25.9292 11.859375q-2.15625 0 -3.828125 -0.703125q-1.65625 -0.703125 -2.828125 -1.90625q-1.15625 -1.21875 -1.765625 -2.78125q-0.609375 -1.578125 -0.609375 -3.34375q0 -2.296875 1.0625 -4.28125q1.078125 -1.984375 3.09375 -3.203125q2.015625 -1.21875 4.875 -1.21875q2.875 0 4.875 1.234375q2.0 1.234375 2.984375 3.21875l-4.984375 1.5q-0.484375 -0.765625 -1.234375 -1.171875q-0.75 -0.421875 -1.671875 -0.421875q-1.0625 0 -1.90625 0.546875q-0.84375 0.53125 -1.34375 1.5q-0.5 0.953125 -0.5 2.296875q0 1.3125 0.515625 2.3125q0.515625 0.984375 1.34375 1.546875q0.828125 0.5625 1.890625 0.5625q0.640625 0 1.1875 -0.203125q0.5625 -0.21875 1.03125 -0.59375q0.46875 -0.390625 0.71875 -0.859375l5.0 1.53125q-0.609375 1.28125 -1.75 2.296875q-1.140625 1.0 -2.671875 1.578125q-1.53125 0.5625 -3.484375 0.5625zm9.146301 -5.34375q0 -1.65625 0.921875 -2.90625q0.9375 -1.25 2.5625 -1.96875q1.640625 -0.71875 3.75 -0.71875q1.015625 0 2.0 0.1875q1.0 0.171875 1.75 0.484375l0 -0.734375q0 -1.375 -0.84375 -2.109375q-0.828125 -0.734375 -2.53125 -0.734375q-1.40625 0 -2.640625 0.484375q-1.21875 0.46875 -2.59375 1.359375l-1.546875 -3.25q1.671875 -1.09375 3.46875 -1.640625q1.8125 -0.546875 3.828125 -0.546875q3.78125 0 5.875 1.8125q2.09375 1.8125 2.09375 5.234375l0 4.375q0 0.78125 0.234375 1.09375q0.25 0.296875 0.859375 0.359375l0 4.25q-0.640625 0.125 -1.203125 0.1875q-0.5625 0.0625 -0.96875 0.0625q-1.453125 0 -2.203125 -0.5625q-0.75 -0.578125 -0.9375 -1.578125l-0.09375 -0.734375q-1.125 1.4375 -2.6875 2.1875q-1.546875 0.75 -3.234375 0.75q-1.671875 0 -3.0 -0.703125q-1.328125 -0.703125 -2.09375 -1.90625q-0.765625 -1.21875 -0.765625 -2.734375zm10.171875 0.640625q0.359375 -0.28125 0.578125 -0.625q0.234375 -0.359375 0.234375 -0.6875l0 -1.5q-0.640625 -0.25 -1.4375 -0.390625q-0.78125 -0.15625 -1.453125 -0.15625q-1.40625 0 -2.34375 0.625q-0.921875 0.625 -0.921875 1.65625q0 0.578125 0.3125 1.0625q0.328125 0.46875 0.890625 0.765625q0.5625 0.28125 1.328125 0.28125q0.765625 0 1.53125 -0.28125q0.78125 -0.296875 1.28125 -0.75zm20.357666 3.5q-0.703125 0.28125 -1.5625 0.578125q-0.84375 0.28125 -1.765625 0.453125q-0.921875 0.171875 -1.828125 0.171875q-1.28125 0 -2.359375 -0.421875q-1.0625 -0.4375 -1.6875 -1.421875q-0.625 -1.0 -0.625 -2.625l0 -8.765625l-2.140625 0l0 -3.875l2.140625 0l0 -5.34375l5.125 0l0 5.34375l3.421875 0l0 3.875l-3.421875 0l0 7.0q0 0.828125 0.40625 1.203125q0.421875 0.359375 1.0625 0.359375q0.546875 0 1.171875 -0.1875q0.625 -0.1875 1.0625 -0.40625l1.0 4.0625zm1.9890137 0.890625l0 -16.796875l5.109375 0l0 16.796875l-5.109375 0zm0 -18.71875l0 -4.640625l5.109375 0l0 4.640625l-5.109375 0zm16.640015 19.03125q-2.15625 0 -3.84375 -0.703125q-1.671875 -0.703125 -2.828125 -1.90625q-1.140625 -1.21875 -1.734375 -2.78125q-0.59375 -1.578125 -0.59375 -3.3125q0 -1.75 0.59375 -3.3125q0.59375 -1.578125 1.734375 -2.796875q1.15625 -1.21875 2.828125 -1.921875q1.6875 -0.703125 3.84375 -0.703125q2.140625 0 3.796875 0.703125q1.671875 0.703125 2.8125 1.921875q1.15625 1.21875 1.765625 2.796875q0.609375 1.5625 0.609375 3.3125q0 1.734375 -0.609375 3.3125q-0.609375 1.5625 -1.765625 2.78125q-1.140625 1.203125 -2.8125 1.90625q-1.65625 0.703125 -3.796875 0.703125zm-3.75 -8.703125q0 1.3125 0.5 2.3125q0.5 0.984375 1.328125 1.53125q0.828125 0.546875 1.921875 0.546875q1.046875 0 1.890625 -0.5625q0.859375 -0.5625 1.328125 -1.546875q0.484375 -1.0 0.484375 -2.28125q0 -1.3125 -0.484375 -2.296875q-0.46875 -1.0 -1.328125 -1.53125q-0.84375 -0.546875 -1.890625 -0.546875q-1.09375 0 -1.921875 0.546875q-0.828125 0.53125 -1.328125 1.53125q-0.5 0.984375 -0.5 2.296875zm31.45752 8.390625l-5.125 0l0 -9.4375q0 -1.671875 -0.625 -2.421875q-0.625 -0.75 -1.640625 -0.75q-0.703125 0 -1.4375 0.390625q-0.734375 0.375 -1.328125 1.046875q-0.59375 0.671875 -0.921875 1.546875l0 9.625l-5.109375 0l0 -16.796875l4.609375 0l0 2.8125q0.640625 -0.984375 1.59375 -1.6875q0.953125 -0.71875 2.203125 -1.078125q1.25 -0.375 2.71875 -0.375q1.640625 0 2.640625 0.59375q1.015625 0.59375 1.53125 1.5625q0.53125 0.953125 0.703125 2.0625q0.1875 1.09375 0.1875 2.15625l0 10.75z" fill-rule="nonzero"/></g><path fill="#134f5c" d="m988.8297 77.63854l0 0c0 -16.635818 13.486023 -30.12181 30.121826 -30.12181l61.89807 0l0 0c7.9888916 0 15.650391 3.1735382 21.299316 8.822475c5.649048 5.6489334 8.82251 13.310535 8.82251 21.299335l0 57.67765c0 16.635803 -13.485962 30.121796 -30.121826 30.121796l-61.89807 0l0 0c-16.635803 0 -30.121826 -13.485992 -30.121826 -30.121796z" fill-rule="evenodd"/><path fill="#edf7f1" d="m985.71857 353.50174l0 0c0 -16.635834 13.486023 -30.121826 30.121826 -30.121826l70.591 0l0 0c7.9887695 0 15.650391 3.1735535 21.299316 8.822479c5.648926 5.6489563 8.82251 13.310547 8.82251 21.299347l0 57.677643c0 16.635803 -13.485962 30.121796 -30.121826 30.121796l-70.591 0c-16.635803 0 -30.121826 -13.485992 -30.121826 -30.121796z" fill-rule="evenodd"/><g filter="url(#shadowFilter-p.2)"><use xlink:href="#p.2" transform="matrix(1.0 0.0 0.0 1.0 0.0 6.0)"/></g><defs><filter id="shadowFilter-p.2" filterUnits="userSpaceOnUse"><feGaussianBlur in="SourceAlpha" stdDeviation="2.0" result="blur"/><feComponentTransfer in="blur" color-interpolation-filters="sRGB"><feFuncR type="linear" slope="0" intercept="0.3137255"/><feFuncG type="linear" slope="0" intercept="0.08627451"/><feFuncB type="linear" slope="0" intercept="0.12941177"/><feFuncA type="linear" slope="0.65" intercept="0"/></feComponentTransfer></filter></defs><g id="p.2"><path fill="#000000" fill-opacity="0.0" d="m511.19638 120.073494l324.50394 0l0 196.81891l-324.50394 0z" fill-rule="evenodd"/><path fill="#eef7f1" d="m522.712 175.20149l0 -40.71875l14.65625 0q4.265625 0 7.765625 0.875q3.515625 0.875 5.578125 3.0625q2.078125 2.1875 2.078125 6.203125q0 2.640625 -1.390625 5.234375q-1.375 2.59375 -3.75 3.546875l0 0.25q2.9375 0.8125 4.96875 3.125q2.046875 2.3125 2.046875 6.390625q0 4.203125 -2.203125 6.875q-2.1875 2.65625 -5.828125 3.90625q-3.625 1.25 -8.015625 1.25l-15.90625 0zm10.765625 -8.265625l4.390625 0q3.203125 0 4.734375 -1.125q1.53125 -1.140625 1.53125 -3.390625q0 -2.25 -1.53125 -3.1875q-1.53125 -0.953125 -4.734375 -0.953125l-4.390625 0l0 8.65625zm0 -16.546875l3.640625 0q2.625 0 3.875 -1.125q1.265625 -1.125 1.265625 -3.015625q0 -1.875 -1.265625 -2.6875q-1.25 -0.8125 -3.875 -0.8125l-3.640625 0l0 7.640625zm27.579956 24.8125l0 -40.71875l10.765625 0l0 31.703125l15.421875 0l0 9.015625l-26.1875 0zm47.85736 0.75q-5.625 0 -9.890625 -2.53125q-4.265625 -2.546875 -6.65625 -7.296875q-2.375 -4.765625 -2.375 -11.46875q0 -6.703125 2.375 -11.375q2.390625 -4.671875 6.65625 -7.109375q4.265625 -2.453125 9.890625 -2.453125q5.640625 0 9.90625 2.453125q4.265625 2.4375 6.640625 7.109375q2.375 4.671875 2.375 11.375q0 6.703125 -2.375 11.46875q-2.375 4.75 -6.640625 7.296875q-4.265625 2.53125 -9.90625 2.53125zm0 -9.265625q2.453125 0 4.234375 -1.46875q1.78125 -1.484375 2.71875 -4.171875q0.953125 -2.703125 0.953125 -6.390625q0 -3.703125 -0.953125 -6.296875q-0.9375 -2.609375 -2.71875 -3.984375q-1.78125 -1.375 -4.234375 -1.375q-2.4375 0 -4.234375 1.375q-1.78125 1.375 -2.71875 3.984375q-0.9375 2.59375 -0.9375 6.296875q0 3.6875 0.9375 6.390625q0.9375 2.6875 2.71875 4.171875q1.796875 1.46875 4.234375 1.46875zm43.358032 9.265625q-5.625 0 -9.890625 -2.53125q-4.265625 -2.546875 -6.65625 -7.296875q-2.375 -4.765625 -2.375 -11.46875q0 -6.703125 2.375 -11.375q2.390625 -4.671875 6.65625 -7.109375q4.265625 -2.453125 9.890625 -2.453125q5.640625 0 9.90625 2.453125q4.265625 2.4375 6.640625 7.109375q2.375 4.671875 2.375 11.375q0 6.703125 -2.375 11.46875q-2.375 4.75 -6.640625 7.296875q-4.265625 2.53125 -9.90625 2.53125zm0 -9.265625q2.453125 0 4.234375 -1.46875q1.78125 -1.484375 2.71875 -4.171875q0.953125 -2.703125 0.953125 -6.390625q0 -3.703125 -0.953125 -6.296875q-0.9375 -2.609375 -2.71875 -3.984375q-1.78125 -1.375 -4.234375 -1.375q-2.4375 0 -4.234375 1.375q-1.78125 1.375 -2.71875 3.984375q-0.9375 2.59375 -0.9375 6.296875q0 3.6875 0.9375 6.390625q0.9375 2.6875 2.71875 4.171875q1.796875 1.46875 4.234375 1.46875zm26.201843 8.515625l0 -40.71875l12.03125 0q6.203125 0 10.921875 2.03125q4.734375 2.03125 7.359375 6.484375q2.640625 4.453125 2.640625 11.65625q0 7.203125 -2.640625 11.75q-2.625 4.53125 -7.203125 6.671875q-4.5625 2.125 -10.453125 2.125l-12.65625 0zm10.765625 -8.640625l0.640625 0q2.9375 0 5.3125 -1.0q2.390625 -1.015625 3.796875 -3.578125q1.40625 -2.578125 1.40625 -7.328125q0 -4.765625 -1.40625 -7.234375q-1.40625 -2.484375 -3.796875 -3.390625q-2.375 -0.90625 -5.3125 -0.90625l-0.640625 0l0 23.4375z" fill-rule="nonzero"/><path fill="#eef7f1" d="m541.50885 236.1115q-5.703125 0 -10.375 -2.28125q-4.671875 -2.296875 -7.4375 -6.921875q-2.75 -4.640625 -2.75 -11.59375q0 -5.140625 1.625 -9.109375q1.640625 -3.984375 4.453125 -6.734375q2.828125 -2.765625 6.484375 -4.171875q3.671875 -1.421875 7.75 -1.421875q4.5 0 7.8125 1.609375q3.328125 1.59375 5.46875 3.78125l-5.640625 6.890625q-1.5 -1.3125 -3.171875 -2.15625q-1.65625 -0.84375 -4.09375 -0.84375q-2.765625 0 -4.953125 1.40625q-2.1875 1.40625 -3.453125 4.046875q-1.25 2.625 -1.25 6.328125q0 3.8125 1.15625 6.484375q1.171875 2.65625 3.515625 4.046875q2.34375 1.375 5.984375 1.375q0.875 0 1.71875 -0.1875q0.84375 -0.1875 1.40625 -0.5625l0 -5.640625l-6.015625 0l0 -8.78125l15.546875 0l0 19.421875q-2.125 2.078125 -5.796875 3.546875q-3.671875 1.46875 -7.984375 1.46875zm21.679016 -0.75l0 -40.71875l10.765625 0l0 31.703125l15.421875 0l0 9.015625l-26.1875 0zm47.35736 0.75q-4.25 0 -7.453125 -1.25q-3.1875 -1.25 -5.296875 -3.75q-2.09375 -2.515625 -3.125 -6.359375q-1.03125 -3.859375 -1.03125 -9.0625l0 -21.046875l10.765625 0l0 22.296875q0 3.640625 0.65625 5.796875q0.671875 2.15625 2.015625 3.140625q1.34375 0.96875 3.46875 0.96875q2.140625 0 3.515625 -0.96875q1.375 -0.984375 2.0625 -3.140625q0.6875 -2.15625 0.6875 -5.796875l0 -22.296875l10.40625 0l0 21.046875q0 5.203125 -1.0 9.0625q-1.0 3.84375 -3.046875 6.359375q-2.03125 2.5 -5.203125 3.75q-3.15625 1.25 -7.421875 1.25zm43.120544 0q-5.203125 0 -9.625 -2.28125q-4.421875 -2.296875 -7.125 -6.921875q-2.6875 -4.640625 -2.6875 -11.59375q0 -5.140625 1.59375 -9.109375q1.609375 -3.984375 4.390625 -6.734375q2.796875 -2.765625 6.328125 -4.171875q3.546875 -1.421875 7.375 -1.421875q4.0625 0 7.28125 1.609375q3.234375 1.59375 5.375 3.78125l-5.640625 6.890625q-1.515625 -1.3125 -3.109375 -2.15625q-1.59375 -0.84375 -3.65625 -0.84375q-2.390625 0 -4.421875 1.40625q-2.03125 1.40625 -3.265625 4.046875q-1.21875 2.625 -1.21875 6.328125q0 3.8125 1.09375 6.484375q1.109375 2.65625 3.078125 4.046875q1.96875 1.375 4.609375 1.375q2.375 0 4.21875 -1.0625q1.859375 -1.078125 3.171875 -2.453125l5.640625 6.765625q-2.578125 3.015625 -6.03125 4.515625q-3.4375 1.5 -7.375 1.5zm33.694214 0q-5.625 0 -9.890625 -2.53125q-4.265625 -2.546875 -6.65625 -7.296875q-2.375 -4.765625 -2.375 -11.46875q0 -6.703125 2.375 -11.375q2.390625 -4.671875 6.65625 -7.109375q4.265625 -2.453125 9.890625 -2.453125q5.640625 0 9.90625 2.453125q4.265625 2.4375 6.640625 7.109375q2.375 4.671875 2.375 11.375q0 6.703125 -2.375 11.46875q-2.375 4.75 -6.640625 7.296875q-4.265625 2.53125 -9.90625 2.53125zm0 -9.265625q2.453125 0 4.234375 -1.46875q1.78125 -1.484375 2.71875 -4.171875q0.953125 -2.703125 0.953125 -6.390625q0 -3.703125 -0.953125 -6.296875q-0.9375 -2.609375 -2.71875 -3.984375q-1.78125 -1.375 -4.234375 -1.375q-2.4375 0 -4.234375 1.375q-1.78125 1.375 -2.71875 3.984375q-0.9375 2.59375 -0.9375 6.296875q0 3.6875 0.9375 6.390625q0.9375 2.6875 2.71875 4.171875q1.796875 1.46875 4.234375 1.46875zm39.108093 9.265625q-3.828125 0 -7.96875 -1.4375q-4.125 -1.4375 -7.453125 -4.390625l6.140625 -7.390625q2.203125 1.75 4.734375 2.859375q2.53125 1.09375 4.796875 1.09375q2.4375 0 3.53125 -0.75q1.109375 -0.765625 1.109375 -2.140625q0 -1.0 -0.671875 -1.59375q-0.65625 -0.59375 -1.875 -1.125q-1.21875 -0.53125 -2.96875 -1.21875l-5.078125 -2.140625q-2.1875 -0.875 -4.078125 -2.40625q-1.875 -1.53125 -3.0 -3.75q-1.125 -2.234375 -1.125 -5.1875q0 -3.5 1.9375 -6.34375q1.9375 -2.859375 5.34375 -4.578125q3.421875 -1.734375 7.875 -1.734375q3.515625 0 7.109375 1.359375q3.609375 1.34375 6.421875 4.09375l-5.390625 6.765625q-2.0625 -1.4375 -3.984375 -2.1875q-1.90625 -0.75 -4.15625 -0.75q-1.9375 0 -3.109375 0.6875q-1.15625 0.6875 -1.15625 2.0625q0 0.9375 0.71875 1.609375q0.734375 0.65625 2.109375 1.1875q1.375 0.53125 3.1875 1.28125l4.953125 1.9375q2.5625 1.0 4.3125 2.546875q1.765625 1.53125 2.703125 3.671875q0.9375 2.125 0.9375 4.9375q0 3.453125 -1.84375 6.4375q-1.84375 2.96875 -5.421875 4.78125q-3.5625 1.8125 -8.640625 1.8125zm22.431824 -0.75l0 -40.71875l26.3125 0l0 9.015625l-15.546875 0l0 6.390625l13.296875 0l0 9.015625l-13.296875 0l0 7.28125l16.171875 0l0 9.015625l-26.9375 0z" fill-rule="nonzero"/><path fill="#eef7f1" d="m540.38385 296.2715q-5.203125 0 -9.625 -2.28125q-4.421875 -2.296875 -7.125 -6.921875q-2.6875 -4.640625 -2.6875 -11.59375q0 -5.140625 1.59375 -9.109375q1.609375 -3.984375 4.390625 -6.734375q2.796875 -2.765625 6.328125 -4.1718903q3.546875 -1.421875 7.375 -1.421875q4.0625 0 7.28125 1.609375q3.234375 1.5937653 5.375 3.7812653l-5.640625 6.890625q-1.515625 -1.3125 -3.109375 -2.15625q-1.59375 -0.84375 -3.65625 -0.84375q-2.390625 0 -4.421875 1.40625q-2.03125 1.40625 -3.265625 4.046875q-1.21875 2.625 -1.21875 6.328125q0 3.8125 1.09375 6.484375q1.109375 2.65625 3.078125 4.046875q1.96875 1.375 4.609375 1.375q2.375 0 4.21875 -1.0625q1.859375 -1.078125 3.171875 -2.453125l5.640625 6.765625q-2.578125 3.015625 -6.03125 4.515625q-3.4375 1.5 -7.375 1.5zm33.694214 0q-5.625 0 -9.890625 -2.53125q-4.265625 -2.546875 -6.65625 -7.296875q-2.375 -4.765625 -2.375 -11.46875q0 -6.703125 2.375 -11.375q2.390625 -4.671875 6.65625 -7.109375q4.265625 -2.4531403 9.890625 -2.4531403q5.640625 0 9.90625 2.4531403q4.265625 2.4375 6.640625 7.109375q2.375 4.671875 2.375 11.375q0 6.703125 -2.375 11.46875q-2.375 4.75 -6.640625 7.296875q-4.265625 2.53125 -9.90625 2.53125zm0 -9.265625q2.453125 0 4.234375 -1.46875q1.78125 -1.484375 2.71875 -4.171875q0.953125 -2.703125 0.953125 -6.390625q0 -3.703125 -0.953125 -6.296875q-0.9375 -2.609375 -2.71875 -3.984375q-1.78125 -1.375 -4.234375 -1.375q-2.4375 0 -4.234375 1.375q-1.78125 1.375 -2.71875 3.984375q-0.9375 2.59375 -0.9375 6.296875q0 3.6875 0.9375 6.390625q0.9375 2.6875 2.71875 4.171875q1.796875 1.46875 4.234375 1.46875zm26.201843 8.515625l0 -40.718765l11.015625 0l9.03125 18.156265l3.890625 9.15625l0.25 0q-0.375 -3.328125 -0.890625 -7.546875q-0.5 -4.234375 -0.5 -8.0l0 -11.76564l10.28125 0l0 40.718765l-11.03125 0l-9.015625 -18.234375l-3.890625 -9.078125l-0.25 0q0.375 3.4375 0.875 7.609375q0.5 4.171875 0.5 7.921875l0 11.78125l-10.265625 0zm49.870544 0l0 -31.703125l-10.78125 0l0 -9.01564l32.328125 0l0 9.01564l-10.765625 0l0 31.703125l-10.78125 0zm27.572449 0l0 -40.718765l15.40625 0q4.390625 0 8.078125 1.15625q3.703125 1.1562653 5.953125 4.0468903q2.265625 2.875 2.265625 7.953125q0 4.875 -2.265625 7.953125q-2.25 3.0625 -5.953125 4.515625q-3.6875 1.4375 -8.078125 1.4375l-4.640625 0l0 13.65625l-10.765625 0zm21.921875 0l-8.453125 -16.484375l7.265625 -7.140625l13.21875 23.625l-12.03125 0zm-11.15625 -22.1875l3.890625 0q3.203125 0 4.859375 -1.375q1.65625 -1.375 1.65625 -4.0q0 -2.640625 -1.65625 -3.640625q-1.65625 -1.0 -4.859375 -1.0l-3.890625 0l0 10.015625zm45.864014 22.9375q-5.625 0 -9.890625 -2.53125q-4.265625 -2.546875 -6.65625 -7.296875q-2.375 -4.765625 -2.375 -11.46875q0 -6.703125 2.375 -11.375q2.390625 -4.671875 6.65625 -7.109375q4.265625 -2.4531403 9.890625 -2.4531403q5.640625 0 9.90625 2.4531403q4.265625 2.4375 6.640625 7.109375q2.375 4.671875 2.375 11.375q0 6.703125 -2.375 11.46875q-2.375 4.75 -6.640625 7.296875q-4.265625 2.53125 -9.90625 2.53125zm0 -9.265625q2.453125 0 4.234375 -1.46875q1.78125 -1.484375 2.71875 -4.171875q0.953125 -2.703125 0.953125 -6.390625q0 -3.703125 -0.953125 -6.296875q-0.9375 -2.609375 -2.71875 -3.984375q-1.78125 -1.375 -4.234375 -1.375q-2.4375 0 -4.234375 1.375q-1.78125 1.375 -2.71875 3.984375q-0.9375 2.59375 -0.9375 6.296875q0 3.6875 0.9375 6.390625q0.9375 2.6875 2.71875 4.171875q1.796875 1.46875 4.234375 1.46875zm26.201843 8.515625l0 -40.718765l10.765625 0l0 31.70314l15.421875 0l0 9.015625l-26.1875 0z" fill-rule="nonzero"/></g><path fill="#c7f6e3" d="m991.54333 215.57063l0 0c0 -16.635818 13.485962 -30.12181 30.121765 -30.12181l61.898132 0l0 0c7.9887695 0 15.650391 3.1735382 21.299316 8.822464c5.648926 5.648941 8.82251 13.310547 8.82251 21.299347l0 57.677628c0 16.635834 -13.485962 30.121826 -30.121826 30.121826l-61.898132 0l0 0c-16.635803 0 -30.121765 -13.485992 -30.121765 -30.121826z" fill-rule="evenodd"/><g filter="url(#shadowFilter-p.3)"><use xlink:href="#p.3" transform="matrix(1.0 0.0 0.0 1.0 -0.03490472440944717 1.9996952755905149)"/></g><defs><filter id="shadowFilter-p.3" filterUnits="userSpaceOnUse"><feGaussianBlur in="SourceAlpha" stdDeviation="8.5" result="blur"/><feComponentTransfer in="blur" color-interpolation-filters="sRGB"><feFuncR type="linear" slope="0" intercept="0.3137255"/><feFuncG type="linear" slope="0" intercept="0.08627451"/><feFuncB type="linear" slope="0" intercept="0.12941177"/><feFuncA type="linear" slope="0.86" intercept="0"/></feComponentTransfer></filter></defs><g id="p.3"><path fill="#ffffff" d="m278.76895 304.2982l0 0c0 -26.622742 25.530334 -48.204742 57.02362 -48.204742l0 0c31.493256 0 57.02362 21.582 57.02362 48.204742l0 0c0 26.622742 -25.530365 48.204712 -57.02362 48.204712l0 0c-31.493286 0 -57.02362 -21.58197 -57.02362 -48.204712z" fill-rule="evenodd"/><path stroke="#501621" stroke-width="8.0" stroke-linejoin="round" stroke-linecap="butt" d="m278.76895 304.2982l0 0c0 -26.622742 25.530334 -48.204742 57.02362 -48.204742l0 0c31.493256 0 57.02362 21.582 57.02362 48.204742l0 0c0 26.622742 -25.530365 48.204712 -57.02362 48.204712l0 0c-31.493286 0 -57.02362 -21.58197 -57.02362 -48.204712z" fill-rule="evenodd"/></g><g filter="url(#shadowFilter-p.4)"><use xlink:href="#p.4" transform="matrix(1.0 0.0 0.0 1.0 -0.03490472440944717 1.999695275590553)"/></g><defs><filter id="shadowFilter-p.4" filterUnits="userSpaceOnUse"><feGaussianBlur in="SourceAlpha" stdDeviation="8.5" result="blur"/><feComponentTransfer in="blur" color-interpolation-filters="sRGB"><feFuncR type="linear" slope="0" intercept="0.3137255"/><feFuncG type="linear" slope="0" intercept="0.08627451"/><feFuncB type="linear" slope="0" intercept="0.12941177"/><feFuncA type="linear" slope="0.86" intercept="0"/></feComponentTransfer></filter></defs><g id="p.4"><path fill="#f4cccc" d="m217.33627 194.12268l0 0c0 -42.21718 53.04193 -76.440956 118.47244 -76.440956l0 0c65.43051 0 118.47244 34.223778 118.47244 76.440956l0 0c0 42.217163 -53.04193 76.44095 -118.47244 76.44095l0 0c-65.43051 0 -118.47244 -34.223785 -118.47244 -76.44095z" fill-rule="evenodd"/><path stroke="#501621" stroke-width="8.0" stroke-linejoin="round" stroke-linecap="butt" d="m217.33627 194.12268l0 0c0 -42.21718 53.04193 -76.440956 118.47244 -76.440956l0 0c65.43051 0 118.47244 34.223778 118.47244 76.440956l0 0c0 42.217163 -53.04193 76.44095 -118.47244 76.44095l0 0c-65.43051 0 -118.47244 -34.223785 -118.47244 -76.44095z" fill-rule="evenodd"/></g><g filter="url(#shadowFilter-p.5)"><use xlink:href="#p.5" transform="matrix(1.0 0.0 0.0 1.0 -0.03490472440944717 1.999695275590553)"/></g><defs><filter id="shadowFilter-p.5" filterUnits="userSpaceOnUse"><feGaussianBlur in="SourceAlpha" stdDeviation="8.5" result="blur"/><feComponentTransfer in="blur" color-interpolation-filters="sRGB"><feFuncR type="linear" slope="0" intercept="0.3137255"/><feFuncG type="linear" slope="0" intercept="0.08627451"/><feFuncB type="linear" slope="0" intercept="0.12941177"/><feFuncA type="linear" slope="0.86" intercept="0"/></feComponentTransfer></filter></defs><g id="p.5"><path fill="#ffffff" d="m236.35565 158.89003l0 0c0 -22.758713 18.449585 -41.208305 41.208313 -41.208305l116.48102 0l0 0c10.929108 0 21.410614 4.3415833 29.138672 12.0696335c7.728058 7.728058 12.069641 18.209549 12.069641 29.138672l0 78.906235c0 22.758698 -18.449585 41.208313 -41.208313 41.208313l-116.48102 0c-22.758728 0 -41.208313 -18.449615 -41.208313 -41.208313z" fill-rule="evenodd"/><path stroke="#501621" stroke-width="8.0" stroke-linejoin="round" stroke-linecap="butt" d="m236.35565 158.89003l0 0c0 -22.758713 18.449585 -41.208305 41.208313 -41.208305l116.48102 0l0 0c10.929108 0 21.410614 4.3415833 29.138672 12.0696335c7.728058 7.728058 12.069641 18.209549 12.069641 29.138672l0 78.906235c0 22.758698 -18.449585 41.208313 -41.208313 41.208313l-116.48102 0c-22.758728 0 -41.208313 -18.449615 -41.208313 -41.208313z" fill-rule="evenodd"/></g><path fill="#501621" d="m266.21057 179.07272l0 0c0 -14.040909 11.382416 -25.423325 25.42331 -25.423325l88.36597 0l0 0c6.742676 0 13.209198 2.6785278 17.97699 7.4463196c4.7678223 4.767807 7.4463196 11.234329 7.4463196 17.977005l0 48.680923c0 14.040909 -11.382385 25.423325 -25.42331 25.423325l-88.36597 0c-14.040894 0 -25.42331 -11.382416 -25.42331 -25.423325z" fill-rule="evenodd"/><path stroke="#501621" stroke-width="8.0" stroke-linejoin="round" stroke-linecap="butt" d="m266.21057 179.07272l0 0c0 -14.040909 11.382416 -25.423325 25.42331 -25.423325l88.36597 0l0 0c6.742676 0 13.209198 2.6785278 17.97699 7.4463196c4.7678223 4.767807 7.4463196 11.234329 7.4463196 17.977005l0 48.680923c0 14.040909 -11.382385 25.423325 -25.42331 25.423325l-88.36597 0c-14.040894 0 -25.42331 -11.382416 -25.42331 -25.423325z" fill-rule="evenodd"/><path fill="#e06666" d="m227.85742 153.79253l0 0c0 -6.766571 5.4853973 -12.251968 12.251968 -12.251968l191.4016 0c3.2494202 0 6.365753 1.2908325 8.663422 3.5885162c2.297699 2.297699 3.5885315 5.414032 3.5885315 8.663452l0 0l0 0c0 6.7665863 -5.485382 12.251968 -12.251953 12.251968l-191.4016 0c-6.766571 0 -12.251968 -5.485382 -12.251968 -12.251968z" fill-rule="evenodd"/><path stroke="#501621" stroke-width="8.0" stroke-linejoin="round" stroke-linecap="butt" d="m227.85742 153.79253l0 0c0 -6.766571 5.4853973 -12.251968 12.251968 -12.251968l191.4016 0c3.2494202 0 6.365753 1.2908325 8.663422 3.5885162c2.297699 2.297699 3.5885315 5.414032 3.5885315 8.663452l0 0l0 0c0 6.7665863 -5.485382 12.251968 -12.251953 12.251968l-191.4016 0c-6.766571 0 -12.251968 -5.485382 -12.251968 -12.251968z" fill-rule="evenodd"/><path fill="#f4cccc" d="m299.06177 135.12332l0 0c0 -20.29103 16.449127 -36.740158 36.740173 -36.740158l0 0c9.74408 0 19.08908 3.8708267 25.979218 10.760941c6.890106 6.890114 10.760925 16.235115 10.760925 25.979218l0 0c0 20.29103 -16.449127 36.740158 -36.740143 36.740158l0 0c-20.291046 0 -36.740173 -16.449127 -36.740173 -36.740158z" fill-rule="evenodd"/><path stroke="#501621" stroke-width="8.0" stroke-linejoin="round" stroke-linecap="butt" d="m299.06177 135.12332l0 0c0 -20.29103 16.449127 -36.740158 36.740173 -36.740158l0 0c9.74408 0 19.08908 3.8708267 25.979218 10.760941c6.890106 6.890114 10.760925 16.235115 10.760925 25.979218l0 0c0 20.29103 -16.449127 36.740158 -36.740143 36.740158l0 0c-20.291046 0 -36.740173 -16.449127 -36.740173 -36.740158z" fill-rule="evenodd"/><path fill="#ffffff" d="m317.28864 135.12944l0 0c0 -10.228142 8.291534 -18.519684 18.519684 -18.519684l0 0c4.9117126 0 9.622284 1.9511719 13.095398 5.424286c3.473114 3.473114 5.424286 8.18367 5.424286 13.095398l0 0c0 10.228134 -8.291565 18.519684 -18.519684 18.519684l0 0c-10.228149 0 -18.519684 -8.29155 -18.519684 -18.519684z" fill-rule="evenodd"/><path stroke="#501621" stroke-width="8.0" stroke-linejoin="round" stroke-linecap="butt" d="m317.28864 135.12944l0 0c0 -10.228142 8.291534 -18.519684 18.519684 -18.519684l0 0c4.9117126 0 9.622284 1.9511719 13.095398 5.424286c3.473114 3.473114 5.424286 8.18367 5.424286 13.095398l0 0c0 10.228134 -8.291565 18.519684 -18.519684 18.519684l0 0c-10.228149 0 -18.519684 -8.29155 -18.519684 -18.519684z" fill-rule="evenodd"/><path fill="#fff3f3" d="m283.71115 195.05217l0 0c0 -12.402496 7.586487 -22.456696 16.944885 -22.456696l0 0c4.494049 0 8.804047 2.3659668 11.981842 6.577408c3.177765 4.2114563 4.963043 9.923401 4.963043 15.879288l0 0c0 12.402481 -7.586487 22.456696 -16.944885 22.456696l0 0c-9.358398 0 -16.944885 -10.0542145 -16.944885 -22.456696z" fill-rule="evenodd"/><path fill="#fff3f3" d="m356.127 193.2992l0 0c0 -12.402481 7.586487 -22.456696 16.944885 -22.456696l0 0c4.494049 0 8.804047 2.3659668 11.981842 6.577423c3.177765 4.211441 4.9630127 9.923386 4.9630127 15.879272l0 0c0 12.402496 -7.5864563 22.456696 -16.944855 22.456696l0 0c-9.358398 0 -16.944885 -10.054199 -16.944885 -22.456696z" fill-rule="evenodd"/><g filter="url(#shadowFilter-p.6)"><use xlink:href="#p.6" transform="matrix(1.0 0.0 0.0 1.0 9.192533333333309 7.71345118110238)"/></g><defs><filter id="shadowFilter-p.6" filterUnits="userSpaceOnUse"><feGaussianBlur in="SourceAlpha" stdDeviation="2.0" result="blur"/><feComponentTransfer in="blur" color-interpolation-filters="sRGB"><feFuncR type="linear" slope="0" intercept="0.3137255"/><feFuncG type="linear" slope="0" intercept="0.08627451"/><feFuncB type="linear" slope="0" intercept="0.12941177"/><feFuncA type="linear" slope="0.5" intercept="0"/></feComponentTransfer></filter></defs><g id="p.6"><path fill="#f9fbfd" d="m421.3789 138.63406l0 0c-1.3002625 -8.253799 4.357849 -15.854355 12.637756 -16.976318l0 0l0 0c3.9761658 -0.53878784 8.037537 0.51903534 11.290619 2.9407501c3.2531128 2.4217224 5.4314575 6.008972 6.0558777 9.97258l9.149536 58.078857c1.300293 8.253799 -4.3578186 15.854355 -12.637756 16.976318l0 0l0 0c-8.279907 1.1219635 -16.046204 -4.6595306 -17.346497 -12.91333z" fill-rule="evenodd"/><path stroke="#cc0000" stroke-width="8.0" stroke-linejoin="round" stroke-linecap="butt" d="m421.3789 138.63406l0 0c-1.3002625 -8.253799 4.357849 -15.854355 12.637756 -16.976318l0 0l0 0c3.9761658 -0.53878784 8.037537 0.51903534 11.290619 2.9407501c3.2531128 2.4217224 5.4314575 6.008972 6.0558777 9.97258l9.149536 58.078857c1.300293 8.253799 -4.3578186 15.854355 -12.637756 16.976318l0 0l0 0c-8.279907 1.1219635 -16.046204 -4.6595306 -17.346497 -12.91333z" fill-rule="evenodd"/></g><g filter="url(#shadowFilter-p.7)"><use xlink:href="#p.7" transform="matrix(1.0 0.0 0.0 1.0 9.192533333333309 7.71345118110238)"/></g><defs><filter id="shadowFilter-p.7" filterUnits="userSpaceOnUse"><feGaussianBlur in="SourceAlpha" stdDeviation="2.0" result="blur"/><feComponentTransfer in="blur" color-interpolation-filters="sRGB"><feFuncR type="linear" slope="0" intercept="0.3137255"/><feFuncG type="linear" slope="0" intercept="0.08627451"/><feFuncB type="linear" slope="0" intercept="0.12941177"/><feFuncA type="linear" slope="0.5" intercept="0"/></feComponentTransfer></filter></defs><g id="p.7"><path fill="#f9fbfd" d="m436.7327 237.43799l0 0c-1.2698364 -8.062485 4.2573547 -15.486862 12.345306 -16.582825l0.6951904 -0.094192505l0 0c3.8839722 -0.5262909 7.8511047 0.5070038 11.028656 2.8726044c3.1775818 2.3655853 5.305298 5.8696747 5.9151 9.741425l0 0l0 0c1.2698059 8.062485 -4.2573853 15.486862 -12.345337 16.582825l-0.6951599 0.094192505c-8.087982 1.0959473 -15.67395 -4.551544 -16.943756 -12.614029z" fill-rule="evenodd"/><path stroke="#cc0000" stroke-width="8.0" stroke-linejoin="round" stroke-linecap="butt" d="m436.7327 237.43799l0 0c-1.2698364 -8.062485 4.2573547 -15.486862 12.345306 -16.582825l0.6951904 -0.094192505l0 0c3.8839722 -0.5262909 7.8511047 0.5070038 11.028656 2.8726044c3.1775818 2.3655853 5.305298 5.8696747 5.9151 9.741425l0 0l0 0c1.2698059 8.062485 -4.2573853 15.486862 -12.345337 16.582825l-0.6951599 0.094192505c-8.087982 1.0959473 -15.67395 -4.551544 -16.943756 -12.614029z" fill-rule="evenodd"/></g><path fill="#501621" d="m307.7599 293.47458l0 32.468536l9.578552 0l0 -11.706207c0 -1.4440613 -0.06402588 -2.9291077 -0.19204712 -4.4551086c-0.12289429 -1.526001 -0.25601196 -2.8010864 -0.39941406 -3.8252258c-0.14337158 -1.0241699 -0.23043823 -1.6770935 -0.26116943 -1.9587402l0.19204712 0l6.0374756 21.945282l8.165192 0l5.9913635 -21.991364l0.19204712 0c-0.030731201 0.28164673 -0.11010742 0.9422302 -0.23812866 1.9817505c-0.12289429 1.0395508 -0.24066162 2.3222961 -0.35333252 3.848297c-0.107543945 1.526001 -0.16131592 3.0110474 -0.16131592 4.4551086l0 11.706207l10.331299 0l0 -32.468536l-14.202637 0l-4.8622437 18.734497l-0.18435669 0l-4.908325 -18.734497z" fill-rule="evenodd"/><path fill="#501621" d="m353.43988 293.47458l0 32.468536l10.431152 0l0 -32.468536z" fill-rule="evenodd"/><path fill="#fff3f3" d="m319.57132 224.5l0 0c0 -7.9581146 7.586487 -14.409439 16.944885 -14.409439l0 0c9.358398 0 16.944885 6.4513245 16.944885 14.409439l0 0c0 7.9581146 -7.586487 14.409454 -16.944885 14.409454l0 0c-9.358398 0 -16.944885 -6.4513397 -16.944885 -14.409454z" fill-rule="evenodd"/><g filter="url(#shadowFilter-p.8)"><use xlink:href="#p.8" transform="matrix(1.0 0.0 0.0 1.0 -1.0458687664042057 11.954336482939617)"/></g><defs><filter id="shadowFilter-p.8" filterUnits="userSpaceOnUse"><feGaussianBlur in="SourceAlpha" stdDeviation="9.5" result="blur"/><feComponentTransfer in="blur" color-interpolation-filters="sRGB"><feFuncR type="linear" slope="0" intercept="0.3137255"/><feFuncG type="linear" slope="0" intercept="0.08627451"/><feFuncB type="linear" slope="0" intercept="0.12941177"/><feFuncA type="linear" slope="0.7" intercept="0"/></feComponentTransfer></filter></defs><g id="p.8"><path fill="#fbbe54" d="m271.2144 348.12595c12.763184 -10.575043 -16.3573 -112.57114 -34.944565 -122.395294c-18.587265 -9.824158 -82.40312 43.051178 -76.579025 63.45038c5.8240967 20.399231 98.76044 69.51999 111.52359 58.944916z" fill-rule="evenodd"/><path stroke="#e69138" stroke-width="8.0" stroke-linejoin="round" stroke-linecap="butt" d="m271.2144 348.12595c12.763184 -10.575043 -16.3573 -112.57114 -34.944565 -122.395294c-18.587265 -9.824158 -82.40312 43.051178 -76.579025 63.45038c5.8240967 20.399231 98.76044 69.51999 111.52359 58.944916z" fill-rule="evenodd"/></g><path fill="#9b2828" d="m176.90239 285.2025l0 0c0 -8.9844055 7.2832947 -16.2677 16.267715 -16.2677l0 0c4.3144684 0 8.452225 1.7138977 11.503006 4.764679c3.0507965 3.0508118 4.7647095 7.188568 4.7647095 11.503021l0 0c0 8.9844055 -7.28331 16.26773 -16.267715 16.26773l0 0c-8.984421 0 -16.267715 -7.283325 -16.267715 -16.26773z" fill-rule="evenodd"/><path fill="#9b2828" d="m219.42125 268.19528l0 0c0 -8.9844055 7.28331 -16.2677 16.267715 -16.2677l0 0c4.3144684 0 8.452225 1.713913 11.503021 4.7647095c3.0507812 3.0507812 4.764694 7.1885376 4.764694 11.502991l0 0c0 8.984436 -7.2832947 16.26773 -16.267715 16.26773l0 0c-8.9844055 0 -16.267715 -7.2832947 -16.267715 -16.26773z" fill-rule="evenodd"/><path fill="#9b2828" d="m227.92503 319.21698l0 0c0 -8.984436 7.2832947 -16.26773 16.267715 -16.26773l0 0c4.314453 0 8.452225 1.7139282 11.503006 4.7647095c3.0507965 3.0507812 4.764694 7.1885376 4.764694 11.503021l0 0c0 8.9844055 -7.2832947 16.2677 -16.2677 16.2677l0 0c-8.984421 0 -16.267715 -7.2832947 -16.267715 -16.2677z" fill-rule="evenodd"/><path fill="#e69138" d="m161.13509 289.83948c-6.248642 3.734497 -17.09253 2.6147766 -16.541245 -3.3604736c0.55130005 -5.975281 9.18959 -21.38092 19.848969 -32.491104c10.659378 -11.110184 31.701843 -27.354843 44.10733 -34.170013c12.405502 -6.815155 24.352386 -8.775223 30.325623 -6.720993c5.973221 2.054245 11.854202 13.258148 5.513748 19.046417c-6.340454 5.788269 -33.17253 10.361755 -43.556488 15.683212c-10.383972 5.321472 -12.130951 9.243393 -18.747284 16.24556c-6.6163177 7.0021667 -14.701996 22.032928 -20.950653 25.767395z" fill-rule="evenodd"/><path stroke="#e69138" stroke-width="8.0" stroke-linejoin="round" stroke-linecap="butt" d="m161.13509 289.83948c-6.248642 3.734497 -17.09253 2.6147766 -16.541245 -3.3604736c0.55130005 -5.975281 9.18959 -21.38092 19.848969 -32.491104c10.659378 -11.110184 31.701843 -27.354843 44.10733 -34.170013c12.405502 -6.815155 24.352386 -8.775223 30.325623 -6.720993c5.973221 2.054245 11.854202 13.258148 5.513748 19.046417c-6.340454 5.788269 -33.17253 10.361755 -43.556488 15.683212c-10.383972 5.321472 -12.130951 9.243393 -18.747284 16.24556c-6.6163177 7.0021667 -14.701996 22.032928 -20.950653 25.767395z" fill-rule="evenodd"/></g></svg>