<svg version="1.1" viewBox="0.0 0.0 960.0 480.0" fill="none" stroke="none" stroke-linecap="square" stroke-miterlimit="10" xmlns:xlink="http://www.w3.org/1999/xlink" xmlns="http://www.w3.org/2000/svg"><clipPath id="p.0"><path d="m0 0l960.0 0l0 480.0l-960.0 0l0 -480.0z" clip-rule="nonzero"/></clipPath><g clip-path="url(#p.0)"><path fill="#274daf" d="m0 0l960.0 0l0 480.0l-960.0 0z" fill-rule="evenodd"/><g filter="url(#shadowFilter-p.1)"><use xlink:href="#p.1" transform="matrix(1.0 0.0 0.0 1.0 0.0 2.0)"/></g><defs><filter id="shadowFilter-p.1" filterUnits="userSpaceOnUse"><feGaussianBlur in="SourceAlpha" stdDeviation="2.0" result="blur"/><feComponentTransfer in="blur" color-interpolation-filters="sRGB"><feFuncR type="linear" slope="0" intercept="1.0"/><feFuncG type="linear" slope="0" intercept="0.8509804"/><feFuncB type="linear" slope="0" intercept="0.4"/><feFuncA type="linear" slope="0.55" intercept="0"/></feComponentTransfer></filter></defs><g id="p.1"><path fill="#000000" fill-opacity="0.0" d="m492.06317 317.65747l382.2992 0l0 45.5748l-382.2992 0z" fill-rule="evenodd"/><path fill="#eef7f1" d="m506.48505 336.2491l0 12.984375l-5.25 0l0 -22.71875l4.171875 0l10.515625 13.375l0 -13.375l5.25 0l0 22.71875l-4.28125 0l-10.40625 -12.984375zm26.343811 13.296875q-2.15625 0 -3.84375 -0.703125q-1.671875 -0.703125 -2.828125 -1.90625q-1.140625 -1.21875 -1.734375 -2.78125q-0.59375 -1.578125 -0.59375 -3.3125q0 -1.75 0.59375 -3.3125q0.59375 -1.578125 1.734375 -2.796875q1.15625 -1.21875 2.828125 -1.921875q1.6875 -0.703125 3.84375 -0.703125q2.140625 0 3.796875 0.703125q1.671875 0.703125 2.8125 1.921875q1.15625 1.21875 1.765625 2.796875q0.609375 1.5625 0.609375 3.3125q0 1.734375 -0.609375 3.3125q-0.609375 1.5625 -1.765625 2.78125q-1.140625 1.203125 -2.8125 1.90625q-1.65625 0.703125 -3.796875 0.703125zm-3.75 -8.703125q0 1.3125 0.5 2.3125q0.5 0.984375 1.328125 1.53125q0.828125 0.546875 1.921875 0.546875q1.046875 0 1.890625 -0.5625q0.859375 -0.5625 1.328125 -1.546875q0.484375 -1.0 0.484375 -2.28125q0 -1.3125 -0.484375 -2.296875q-0.46875 -1.0 -1.328125 -1.53125q-0.84375 -0.546875 -1.890625 -0.546875q-1.09375 0 -1.921875 0.546875q-0.828125 0.53125 -1.328125 1.53125q-0.5 0.984375 -0.5 2.296875zm23.30127 8.703125q-2.15625 0 -3.828125 -0.703125q-1.65625 -0.703125 -2.828125 -1.90625q-1.15625 -1.21875 -1.765625 -2.78125q-0.609375 -1.578125 -0.609375 -3.34375q0 -2.296875 1.0625 -4.28125q1.078125 -1.984375 3.09375 -3.203125q2.015625 -1.21875 4.875 -1.21875q2.875 0 4.875 1.234375q2.0 1.234375 2.984375 3.21875l-4.984375 1.5q-0.484375 -0.765625 -1.234375 -1.171875q-0.75 -0.421875 -1.671875 -0.421875q-1.0625 0 -1.90625 0.546875q-0.84375 0.53125 -1.34375 1.5q-0.5 0.953125 -0.5 2.296875q0 1.3125 0.515625 2.3125q0.515625 0.984375 1.34375 1.546875q0.828125 0.5625 1.890625 0.5625q0.640625 0 1.1875 -0.203125q0.5625 -0.21875 1.03125 -0.59375q0.46875 -0.390625 0.71875 -0.859375l5.0 1.53125q-0.609375 1.28125 -1.75 2.296875q-1.140625 1.0 -2.671875 1.578125q-1.53125 0.5625 -3.484375 0.5625zm21.083801 -1.203125q-0.703125 0.28125 -1.5625 0.578125q-0.84375 0.28125 -1.765625 0.453125q-0.921875 0.171875 -1.828125 0.171875q-1.28125 0 -2.359375 -0.421875q-1.0625 -0.4375 -1.6875 -1.421875q-0.625 -1.0 -0.625 -2.625l0 -8.765625l-2.140625 0l0 -3.875l2.140625 0l0 -5.34375l5.125 0l0 5.34375l3.421875 0l0 3.875l-3.421875 0l0 7.0q0 0.828125 0.40625 1.203125q0.421875 0.359375 1.0625 0.359375q0.546875 0 1.171875 -0.1875q0.625 -0.1875 1.0625 -0.40625l1.0 4.0625zm1.8171387 -5.15625l0 -10.75l5.125 0l0 9.625q0 1.546875 0.609375 2.359375q0.609375 0.8125 1.734375 0.8125q0.703125 0 1.34375 -0.234375q0.640625 -0.25 1.234375 -0.78125q0.609375 -0.546875 1.09375 -1.421875l0 -10.359375l5.125 0l0 11.09375q0 0.78125 0.234375 1.09375q0.25 0.296875 0.84375 0.359375l0 4.25q-0.703125 0.125 -1.234375 0.1875q-0.515625 0.0625 -0.9375 0.0625q-1.34375 0 -2.140625 -0.546875q-0.796875 -0.5625 -1.0 -1.59375l-0.09375 -1.015625q-1.140625 1.65625 -2.859375 2.4375q-1.71875 0.78125 -3.828125 0.78125q-2.5625 0 -3.90625 -1.625q-1.34375 -1.625 -1.34375 -4.734375zm30.89215 -6.375q-1.859375 0 -3.375 0.59375q-1.5 0.59375 -2.171875 1.75l0 10.078125l-5.109375 0l0 -16.796875l4.703125 0l0 3.390625q0.859375 -1.703125 2.234375 -2.65625q1.375 -0.96875 2.875 -1.0q0.359375 0 0.53125 0q0.171875 0 0.3125 0.03125l0 4.609375zm18.331299 12.421875l-5.125 0l0 -9.4375q0 -1.671875 -0.625 -2.421875q-0.625 -0.75 -1.640625 -0.75q-0.703125 0 -1.4375 0.390625q-0.734375 0.375 -1.328125 1.046875q-0.59375 0.671875 -0.921875 1.546875l0 9.625l-5.109375 0l0 -16.796875l4.609375 0l0 2.8125q0.640625 -0.984375 1.59375 -1.6875q0.953125 -0.71875 2.203125 -1.078125q1.25 -0.375 2.71875 -0.375q1.640625 0 2.640625 0.59375q1.015625 0.59375 1.53125 1.5625q0.53125 0.953125 0.703125 2.0625q0.1875 1.09375 0.1875 2.15625l0 10.75zm2.3340454 -5.03125q0 -1.65625 0.921875 -2.90625q0.9375 -1.25 2.5625 -1.96875q1.640625 -0.71875 3.75 -0.71875q1.015625 0 2.0 0.1875q1.0 0.171875 1.75 0.484375l0 -0.734375q0 -1.375 -0.84375 -2.109375q-0.828125 -0.734375 -2.53125 -0.734375q-1.40625 0 -2.640625 0.484375q-1.21875 0.46875 -2.59375 1.359375l-1.546875 -3.25q1.671875 -1.09375 3.46875 -1.640625q1.8125 -0.546875 3.828125 -0.546875q3.78125 0 5.875 1.8125q2.09375 1.8125 2.09375 5.234375l0 4.375q0 0.78125 0.234375 1.09375q0.25 0.296875 0.859375 0.359375l0 4.25q-0.640625 0.125 -1.203125 0.1875q-0.5625 0.0625 -0.96875 0.0625q-1.453125 0 -2.203125 -0.5625q-0.75 -0.578125 -0.9375 -1.578125l-0.09375 -0.734375q-1.125 1.4375 -2.6875 2.1875q-1.546875 0.75 -3.234375 0.75q-1.671875 0 -3.0 -0.703125q-1.328125 -0.703125 -2.09375 -1.90625q-0.765625 -1.21875 -0.765625 -2.734375zm10.171875 0.640625q0.359375 -0.28125 0.578125 -0.625q0.234375 -0.359375 0.234375 -0.6875l0 -1.5q-0.640625 -0.25 -1.4375 -0.390625q-0.78125 -0.15625 -1.453125 -0.15625q-1.40625 0 -2.34375 0.625q-0.921875 0.625 -0.921875 1.65625q0 0.578125 0.3125 1.0625q0.328125 0.46875 0.890625 0.765625q0.5625 0.28125 1.328125 0.28125q0.765625 0 1.53125 -0.28125q0.78125 -0.296875 1.28125 -0.75zm9.5802 -18.96875l5.109375 0l0 17.375q0 1.0625 0.375 1.515625q0.390625 0.4375 1.09375 0.4375q0.484375 0 0.984375 -0.140625q0.5 -0.140625 0.875 -0.34375l0.671875 3.84375q-0.953125 0.453125 -2.203125 0.703125q-1.25 0.25 -2.34375 0.25q-2.171875 0 -3.375 -1.15625q-1.1875 -1.171875 -1.1875 -3.3125l0 -19.171875zm17.844727 23.359375l0 -22.71875l15.421875 0l0 4.609375l-10.171875 0l0 4.890625l8.390625 0l0 4.265625l-8.390625 0l0 8.953125l-5.25 0zm24.841797 0.3125q-2.15625 0 -3.84375 -0.703125q-1.671875 -0.703125 -2.828125 -1.90625q-1.140625 -1.21875 -1.734375 -2.78125q-0.59375 -1.578125 -0.59375 -3.3125q0 -1.75 0.59375 -3.3125q0.59375 -1.578125 1.734375 -2.796875q1.15625 -1.21875 2.828125 -1.921875q1.6875 -0.703125 3.84375 -0.703125q2.140625 0 3.796875 0.703125q1.671875 0.703125 2.8125 1.921875q1.15625 1.21875 1.765625 2.796875q0.609375 1.5625 0.609375 3.3125q0 1.734375 -0.609375 3.3125q-0.609375 1.5625 -1.765625 2.78125q-1.140625 1.203125 -2.8125 1.90625q-1.65625 0.703125 -3.796875 0.703125zm-3.75 -8.703125q0 1.3125 0.5 2.3125q0.5 0.984375 1.328125 1.53125q0.828125 0.546875 1.921875 0.546875q1.046875 0 1.890625 -0.5625q0.859375 -0.5625 1.328125 -1.546875q0.484375 -1.0 0.484375 -2.28125q0 -1.3125 -0.484375 -2.296875q-0.46875 -1.0 -1.328125 -1.53125q-0.84375 -0.546875 -1.890625 -0.546875q-1.09375 0 -1.921875 0.546875q-0.828125 0.53125 -1.328125 1.53125q-0.5 0.984375 -0.5 2.296875zm25.92627 -4.03125q-1.859375 0 -3.375 0.59375q-1.5 0.59375 -2.171875 1.75l0 10.078125l-5.109375 0l0 -16.796875l4.703125 0l0 3.390625q0.859375 -1.703125 2.234375 -2.65625q1.375 -0.96875 2.875 -1.0q0.359375 0 0.53125 0q0.171875 0 0.3125 0.03125l0 4.609375zm10.047058 12.734375q-2.15625 0 -3.828125 -0.6875q-1.65625 -0.6875 -2.828125 -1.859375q-1.15625 -1.1875 -1.765625 -2.734375q-0.609375 -1.5625 -0.609375 -3.25q0 -2.4375 1.0625 -4.4375q1.078125 -2.0 3.09375 -3.234375q2.015625 -1.234375 4.875 -1.234375q2.84375 0 4.84375 1.21875q2.0 1.21875 3.046875 3.1875q1.0625 1.96875 1.0625 4.265625q0 0.453125 -0.046875 0.890625q-0.046875 0.421875 -0.078125 0.75l-12.421875 0q0.09375 1.109375 0.625 1.890625q0.53125 0.765625 1.359375 1.171875q0.84375 0.390625 1.765625 0.390625q1.15625 0 2.15625 -0.546875q1.015625 -0.546875 1.390625 -1.46875l4.359375 1.21875q-0.640625 1.3125 -1.8125 2.328125q-1.171875 1.0 -2.75 1.578125q-1.578125 0.5625 -3.5 0.5625zm-3.71875 -10.265625l7.296875 0q-0.125 -1.0625 -0.609375 -1.84375q-0.484375 -0.78125 -1.28125 -1.203125q-0.796875 -0.4375 -1.75 -0.4375q-1.0 0 -1.78125 0.4375q-0.78125 0.421875 -1.265625 1.203125q-0.484375 0.78125 -0.609375 1.84375zm23.046753 10.265625q-2.15625 0 -3.828125 -0.703125q-1.65625 -0.703125 -2.828125 -1.90625q-1.15625 -1.21875 -1.765625 -2.78125q-0.609375 -1.578125 -0.609375 -3.34375q0 -2.296875 1.0625 -4.28125q1.078125 -1.984375 3.09375 -3.203125q2.015625 -1.21875 4.875 -1.21875q2.875 0 4.875 1.234375q2.0 1.234375 2.984375 3.21875l-4.984375 1.5q-0.484375 -0.765625 -1.234375 -1.171875q-0.75 -0.421875 -1.671875 -0.421875q-1.0625 0 -1.90625 0.546875q-0.84375 0.53125 -1.34375 1.5q-0.5 0.953125 -0.5 2.296875q0 1.3125 0.515625 2.3125q0.515625 0.984375 1.34375 1.546875q0.828125 0.5625 1.890625 0.5625q0.640625 0 1.1875 -0.203125q0.5625 -0.21875 1.03125 -0.59375q0.46875 -0.390625 0.71875 -0.859375l5.0 1.53125q-0.609375 1.28125 -1.75 2.296875q-1.140625 1.0 -2.671875 1.578125q-1.53125 0.5625 -3.484375 0.5625zm9.146301 -5.34375q0 -1.65625 0.921875 -2.90625q0.9375 -1.25 2.5625 -1.96875q1.640625 -0.71875 3.75 -0.71875q1.015625 0 2.0 0.1875q1.0 0.171875 1.75 0.484375l0 -0.734375q0 -1.375 -0.84375 -2.109375q-0.828125 -0.734375 -2.53125 -0.734375q-1.40625 0 -2.640625 0.484375q-1.21875 0.46875 -2.59375 1.359375l-1.546875 -3.25q1.671875 -1.09375 3.46875 -1.640625q1.8125 -0.546875 3.828125 -0.546875q3.78125 0 5.875 1.8125q2.09375 1.8125 2.09375 5.234375l0 4.375q0 0.78125 0.234375 1.09375q0.25 0.296875 0.859375 0.359375l0 4.25q-0.640625 0.125 -1.203125 0.1875q-0.5625 0.0625 -0.96875 0.0625q-1.453125 0 -2.203125 -0.5625q-0.75 -0.578125 -0.9375 -1.578125l-0.09375 -0.734375q-1.125 1.4375 -2.6875 2.1875q-1.546875 0.75 -3.234375 0.75q-1.671875 0 -3.0 -0.703125q-1.328125 -0.703125 -2.09375 -1.90625q-0.765625 -1.21875 -0.765625 -2.734375zm10.171875 0.640625q0.359375 -0.28125 0.578125 -0.625q0.234375 -0.359375 0.234375 -0.6875l0 -1.5q-0.640625 -0.25 -1.4375 -0.390625q-0.78125 -0.15625 -1.453125 -0.15625q-1.40625 0 -2.34375 0.625q-0.921875 0.625 -0.921875 1.65625q0 0.578125 0.3125 1.0625q0.328125 0.46875 0.890625 0.765625q0.5625 0.28125 1.328125 0.28125q0.765625 0 1.53125 -0.28125q0.78125 -0.296875 1.28125 -0.75zm16.064575 4.703125q-2.140625 0 -4.1875 -0.703125q-2.046875 -0.703125 -3.453125 -2.078125l1.75 -3.234375q1.546875 1.125 3.0 1.703125q1.453125 0.578125 2.734375 0.578125q1.0 0 1.53125 -0.3125q0.546875 -0.328125 0.546875 -1.0q0 -0.484375 -0.328125 -0.75q-0.3125 -0.28125 -0.96875 -0.5q-0.65625 -0.21875 -1.609375 -0.484375q-1.921875 -0.640625 -3.203125 -1.234375q-1.28125 -0.609375 -1.921875 -1.484375q-0.640625 -0.890625 -0.640625 -2.296875q0 -1.703125 0.84375 -2.96875q0.859375 -1.265625 2.421875 -1.96875q1.5625 -0.703125 3.75 -0.703125q1.71875 0 3.359375 0.546875q1.65625 0.546875 3.09375 1.828125l-1.984375 3.203125q-1.4375 -1.0 -2.5625 -1.4375q-1.109375 -0.453125 -2.171875 -0.453125q-0.546875 0 -1.0 0.125q-0.4375 0.125 -0.71875 0.4375q-0.265625 0.296875 -0.265625 0.78125q0 0.484375 0.265625 0.765625q0.28125 0.28125 0.875 0.5q0.59375 0.203125 1.484375 0.484375q2.078125 0.609375 3.453125 1.234375q1.375 0.625 2.0625 1.546875q0.703125 0.90625 0.703125 2.40625q0 2.5625 -1.84375 4.015625q-1.84375 1.453125 -5.015625 1.453125zm20.229126 -1.203125q-0.703125 0.28125 -1.5625 0.578125q-0.84375 0.28125 -1.765625 0.453125q-0.921875 0.171875 -1.828125 0.171875q-1.28125 0 -2.359375 -0.421875q-1.0625 -0.4375 -1.6875 -1.421875q-0.625 -1.0 -0.625 -2.625l0 -8.765625l-2.140625 0l0 -3.875l2.140625 0l0 -5.34375l5.125 0l0 5.34375l3.421875 0l0 3.875l-3.421875 0l0 7.0q0 0.828125 0.40625 1.203125q0.421875 0.359375 1.0625 0.359375q0.546875 0 1.171875 -0.1875q0.625 -0.1875 1.0625 -0.40625l1.0 4.0625zm1.9890747 0.890625l0 -16.796875l5.109375 0l0 16.796875l-5.109375 0zm0 -18.71875l0 -4.640625l5.109375 0l0 4.640625l-5.109375 0zm24.827515 18.71875l-5.125 0l0 -9.4375q0 -1.671875 -0.625 -2.421875q-0.625 -0.75 -1.640625 -0.75q-0.703125 0 -1.4375 0.390625q-0.734375 0.375 -1.328125 1.046875q-0.59375 0.671875 -0.921875 1.546875l0 9.625l-5.109375 0l0 -16.796875l4.609375 0l0 2.8125q0.640625 -0.984375 1.59375 -1.6875q0.953125 -0.71875 2.203125 -1.078125q1.25 -0.375 2.71875 -0.375q1.640625 0 2.640625 0.59375q1.015625 0.59375 1.53125 1.5625q0.53125 0.953125 0.703125 2.0625q0.1875 1.09375 0.1875 2.15625l0 10.75zm9.91217 0.0625q-1.65625 0 -3.03125 -0.65625q-1.375 -0.65625 -2.359375 -1.8125q-0.96875 -1.171875 -1.515625 -2.703125q-0.546875 -1.546875 -0.546875 -3.3125q0 -1.84375 0.578125 -3.40625q0.578125 -1.578125 1.609375 -2.78125q1.046875 -1.203125 2.46875 -1.859375q1.421875 -0.65625 3.15625 -0.65625q1.890625 0 3.328125 0.828125q1.4375 0.8125 2.296875 2.25l0 -2.75l4.453125 0l0 15.640625q0 2.5625 -1.234375 4.421875q-1.234375 1.859375 -3.421875 2.859375q-2.1875 1.015625 -5.078125 1.015625q-2.6875 0 -4.625 -0.890625q-1.921875 -0.875 -3.375 -2.46875l2.765625 -2.796875q0.921875 1.0625 2.296875 1.6875q1.375 0.625 2.9375 0.625q1.25 0 2.3125 -0.453125q1.0625 -0.4375 1.671875 -1.4375q0.625 -0.984375 0.625 -2.5625l0 -1.625q-0.765625 1.375 -2.21875 2.109375q-1.453125 0.734375 -3.09375 0.734375zm1.765625 -4.0625q0.609375 0 1.140625 -0.171875q0.53125 -0.1875 0.96875 -0.484375q0.453125 -0.296875 0.828125 -0.734375q0.390625 -0.4375 0.609375 -0.953125l0 -3.515625q-0.3125 -0.890625 -0.921875 -1.546875q-0.609375 -0.65625 -1.34375 -1.0q-0.734375 -0.359375 -1.53125 -0.359375q-0.8125 0 -1.515625 0.359375q-0.703125 0.34375 -1.203125 1.0q-0.484375 0.65625 -0.765625 1.453125q-0.265625 0.796875 -0.265625 1.671875q0 0.921875 0.296875 1.6875q0.3125 0.765625 0.859375 1.359375q0.546875 0.59375 1.28125 0.921875q0.734375 0.3125 1.5625 0.3125z" fill-rule="nonzero"/></g><g filter="url(#shadowFilter-p.2)"><use xlink:href="#p.2" transform="matrix(1.0 0.0 0.0 1.0 0.0 2.0)"/></g><defs><filter id="shadowFilter-p.2" filterUnits="userSpaceOnUse"><feGaussianBlur in="SourceAlpha" stdDeviation="3.0" result="blur"/><feComponentTransfer in="blur" color-interpolation-filters="sRGB"><feFuncR type="linear" slope="0" intercept="1.0"/><feFuncG type="linear" slope="0" intercept="0.8980392"/><feFuncB type="linear" slope="0" intercept="0.6"/><feFuncA type="linear" slope="0.55" intercept="0"/></feComponentTransfer></filter></defs><g id="p.2"><path fill="#000000" fill-opacity="0.0" d="m492.4457 116.77559l324.50394 0l0 196.8189l-324.50394 0z" fill-rule="evenodd"/><path fill="#eef7f1" d="m503.96133 171.9036l0 -40.71875l14.6562805 0q4.265625 0 7.765625 0.875q3.515625 0.875 5.578125 3.0625q2.078125 2.1875 2.078125 6.203125q0 2.640625 -1.390625 5.234375q-1.375 2.59375 -3.75 3.546875l0 0.25q2.9375 0.8125 4.96875 3.125q2.046875 2.3125 2.046875 6.390625q0 4.203125 -2.203125 6.875q-2.1875 2.65625 -5.828125 3.90625q-3.625 1.25 -8.015625 1.25l-15.9062805 0zm10.7656555 -8.265625l4.390625 0q3.203125 0 4.734375 -1.125q1.53125 -1.140625 1.53125 -3.390625q0 -2.25 -1.53125 -3.1875q-1.53125 -0.953125 -4.734375 -0.953125l-4.390625 0l0 8.65625zm0 -16.546875l3.640625 0q2.625 0 3.875 -1.125q1.265625 -1.125 1.265625 -3.015625q0 -1.875 -1.265625 -2.6875q-1.25 -0.8125 -3.875 -0.8125l-3.640625 0l0 7.640625zm27.579895 24.8125l0 -40.71875l10.765625 0l0 31.703125l15.421875 0l0 9.015625l-26.1875 0zm47.85736 0.75q-5.625 0 -9.890625 -2.53125q-4.265625 -2.546875 -6.65625 -7.296875q-2.375 -4.765625 -2.375 -11.46875q0 -6.703125 2.375 -11.375q2.390625 -4.671875 6.65625 -7.109375q4.265625 -2.453125 9.890625 -2.453125q5.640625 0 9.90625 2.453125q4.265625 2.4375 6.640625 7.109375q2.375 4.671875 2.375 11.375q0 6.703125 -2.375 11.46875q-2.375 4.75 -6.640625 7.296875q-4.265625 2.53125 -9.90625 2.53125zm0 -9.265625q2.453125 0 4.234375 -1.46875q1.78125 -1.484375 2.71875 -4.171875q0.953125 -2.703125 0.953125 -6.390625q0 -3.703125 -0.953125 -6.296875q-0.9375 -2.609375 -2.71875 -3.984375q-1.78125 -1.375 -4.234375 -1.375q-2.4375 0 -4.234375 1.375q-1.78125 1.375 -2.71875 3.984375q-0.9375 2.59375 -0.9375 6.296875q0 3.6875 0.9375 6.390625q0.9375 2.6875 2.71875 4.171875q1.796875 1.46875 4.234375 1.46875zm43.358093 9.265625q-5.625 0 -9.890625 -2.53125q-4.265625 -2.546875 -6.65625 -7.296875q-2.375 -4.765625 -2.375 -11.46875q0 -6.703125 2.375 -11.375q2.390625 -4.671875 6.65625 -7.109375q4.265625 -2.453125 9.890625 -2.453125q5.640625 0 9.90625 2.453125q4.265625 2.4375 6.640625 7.109375q2.375 4.671875 2.375 11.375q0 6.703125 -2.375 11.46875q-2.375 4.75 -6.640625 7.296875q-4.265625 2.53125 -9.90625 2.53125zm0 -9.265625q2.453125 0 4.234375 -1.46875q1.78125 -1.484375 2.71875 -4.171875q0.953125 -2.703125 0.953125 -6.390625q0 -3.703125 -0.953125 -6.296875q-0.9375 -2.609375 -2.71875 -3.984375q-1.78125 -1.375 -4.234375 -1.375q-2.4375 0 -4.234375 1.375q-1.78125 1.375 -2.71875 3.984375q-0.9375 2.59375 -0.9375 6.296875q0 3.6875 0.9375 6.390625q0.9375 2.6875 2.71875 4.171875q1.796875 1.46875 4.234375 1.46875zm26.201782 8.515625l0 -40.71875l12.03125 0q6.203125 0 10.921875 2.03125q4.734375 2.03125 7.359375 6.484375q2.640625 4.453125 2.640625 11.65625q0 7.203125 -2.640625 11.75q-2.625 4.53125 -7.203125 6.671875q-4.5625 2.125 -10.453125 2.125l-12.65625 0zm10.765625 -8.640625l0.640625 0q2.9375 0 5.3125 -1.0q2.390625 -1.015625 3.796875 -3.578125q1.40625 -2.578125 1.40625 -7.328125q0 -4.765625 -1.40625 -7.234375q-1.40625 -2.484375 -3.796875 -3.390625q-2.375 -0.90625 -5.3125 -0.90625l-0.640625 0l0 23.4375z" fill-rule="nonzero"/><path fill="#eef7f1" d="m522.75824 232.8136q-5.703125 0 -10.375 -2.28125q-4.6719055 -2.296875 -7.4375305 -6.921875q-2.75 -4.640625 -2.75 -11.59375q0 -5.140625 1.625 -9.109375q1.640625 -3.984375 4.453125 -6.734375q2.828125 -2.765625 6.4844055 -4.171875q3.671875 -1.421875 7.75 -1.421875q4.5 0 7.8125 1.609375q3.328125 1.59375 5.46875 3.78125l-5.640625 6.890625q-1.5 -1.3125 -3.171875 -2.15625q-1.65625 -0.84375 -4.09375 -0.84375q-2.765625 0 -4.953125 1.40625q-2.1875 1.40625 -3.453125 4.046875q-1.25 2.625 -1.25 6.328125q0 3.8125 1.15625 6.484375q1.171875 2.65625 3.515625 4.046875q2.34375 1.375 5.984375 1.375q0.875 0 1.71875 -0.1875q0.84375 -0.1875 1.40625 -0.5625l0 -5.640625l-6.015625 0l0 -8.78125l15.546875 0l0 19.421875q-2.125 2.078125 -5.796875 3.546875q-3.671875 1.46875 -7.984375 1.46875zm21.678955 -0.75l0 -40.71875l10.765625 0l0 31.703125l15.421875 0l0 9.015625l-26.1875 0zm47.35736 0.75q-4.25 0 -7.453125 -1.25q-3.1875 -1.25 -5.296875 -3.75q-2.09375 -2.515625 -3.125 -6.359375q-1.03125 -3.859375 -1.03125 -9.0625l0 -21.046875l10.765625 0l0 22.296875q0 3.640625 0.65625 5.796875q0.671875 2.15625 2.015625 3.140625q1.34375 0.96875 3.46875 0.96875q2.140625 0 3.515625 -0.96875q1.375 -0.984375 2.0625 -3.140625q0.6875 -2.15625 0.6875 -5.796875l0 -22.296875l10.40625 0l0 21.046875q0 5.203125 -1.0 9.0625q-1.0 3.84375 -3.046875 6.359375q-2.03125 2.5 -5.203125 3.75q-3.15625 1.25 -7.421875 1.25zm43.120605 0q-5.203125 0 -9.625 -2.28125q-4.421875 -2.296875 -7.125 -6.921875q-2.6875 -4.640625 -2.6875 -11.59375q0 -5.140625 1.59375 -9.109375q1.609375 -3.984375 4.390625 -6.734375q2.796875 -2.765625 6.328125 -4.171875q3.546875 -1.421875 7.375 -1.421875q4.0625 0 7.28125 1.609375q3.234375 1.59375 5.375 3.78125l-5.640625 6.890625q-1.515625 -1.3125 -3.109375 -2.15625q-1.59375 -0.84375 -3.65625 -0.84375q-2.390625 0 -4.421875 1.40625q-2.03125 1.40625 -3.265625 4.046875q-1.21875 2.625 -1.21875 6.328125q0 3.8125 1.09375 6.484375q1.109375 2.65625 3.078125 4.046875q1.96875 1.375 4.609375 1.375q2.375 0 4.21875 -1.0625q1.859375 -1.078125 3.171875 -2.453125l5.640625 6.765625q-2.578125 3.015625 -6.03125 4.515625q-3.4375 1.5 -7.375 1.5zm33.694214 0q-5.625 0 -9.890625 -2.53125q-4.265625 -2.546875 -6.65625 -7.296875q-2.375 -4.765625 -2.375 -11.46875q0 -6.703125 2.375 -11.375q2.390625 -4.671875 6.65625 -7.109375q4.265625 -2.453125 9.890625 -2.453125q5.640625 0 9.90625 2.453125q4.265625 2.4375 6.640625 7.109375q2.375 4.671875 2.375 11.375q0 6.703125 -2.375 11.46875q-2.375 4.75 -6.640625 7.296875q-4.265625 2.53125 -9.90625 2.53125zm0 -9.265625q2.453125 0 4.234375 -1.46875q1.78125 -1.484375 2.71875 -4.171875q0.953125 -2.703125 0.953125 -6.390625q0 -3.703125 -0.953125 -6.296875q-0.9375 -2.609375 -2.71875 -3.984375q-1.78125 -1.375 -4.234375 -1.375q-2.4375 0 -4.234375 1.375q-1.78125 1.375 -2.71875 3.984375q-0.9375 2.59375 -0.9375 6.296875q0 3.6875 0.9375 6.390625q0.9375 2.6875 2.71875 4.171875q1.796875 1.46875 4.234375 1.46875zm39.108032 9.265625q-3.828125 0 -7.96875 -1.4375q-4.125 -1.4375 -7.453125 -4.390625l6.140625 -7.390625q2.203125 1.75 4.734375 2.859375q2.53125 1.09375 4.796875 1.09375q2.4375 0 3.53125 -0.75q1.109375 -0.765625 1.109375 -2.140625q0 -1.0 -0.671875 -1.59375q-0.65625 -0.59375 -1.875 -1.125q-1.21875 -0.53125 -2.96875 -1.21875l-5.078125 -2.140625q-2.1875 -0.875 -4.078125 -2.40625q-1.875 -1.53125 -3.0 -3.75q-1.125 -2.234375 -1.125 -5.1875q0 -3.5 1.9375 -6.34375q1.9375 -2.859375 5.34375 -4.578125q3.421875 -1.734375 7.875 -1.734375q3.515625 0 7.109375 1.359375q3.609375 1.34375 6.421875 4.09375l-5.390625 6.765625q-2.0625 -1.4375 -3.984375 -2.1875q-1.90625 -0.75 -4.15625 -0.75q-1.9375 0 -3.109375 0.6875q-1.15625 0.6875 -1.15625 2.0625q0 0.9375 0.71875 1.609375q0.734375 0.65625 2.109375 1.1875q1.375 0.53125 3.1875 1.28125l4.953125 1.9375q2.5625 1.0 4.3125 2.546875q1.765625 1.53125 2.703125 3.671875q0.9375 2.125 0.9375 4.9375q0 3.453125 -1.84375 6.4375q-1.84375 2.96875 -5.421875 4.78125q-3.5625 1.8125 -8.640625 1.8125zm22.431824 -0.75l0 -40.71875l26.3125 0l0 9.015625l-15.546875 0l0 6.390625l13.296875 0l0 9.015625l-13.296875 0l0 7.28125l16.171875 0l0 9.015625l-26.9375 0z" fill-rule="nonzero"/><path fill="#eef7f1" d="m521.63324 292.9736q-5.203125 0 -9.625 -2.28125q-4.4219055 -2.296875 -7.1250305 -6.921875q-2.6875 -4.640625 -2.6875 -11.59375q0 -5.140625 1.59375 -9.109375q1.609375 -3.984375 4.390625 -6.734375q2.796875 -2.765625 6.3281555 -4.171875q3.546875 -1.421875 7.375 -1.421875q4.0625 0 7.28125 1.609375q3.234375 1.59375 5.375 3.78125l-5.640625 6.890625q-1.515625 -1.3125 -3.109375 -2.15625q-1.59375 -0.84375 -3.65625 -0.84375q-2.390625 0 -4.421875 1.40625q-2.03125 1.40625 -3.265625 4.046875q-1.21875 2.625 -1.21875 6.328125q0 3.8125 1.09375 6.484375q1.109375 2.65625 3.078125 4.046875q1.96875 1.375 4.609375 1.375q2.375 0 4.21875 -1.0625q1.859375 -1.078125 3.171875 -2.453125l5.640625 6.765625q-2.578125 3.015625 -6.03125 4.515625q-3.4375 1.5 -7.375 1.5zm33.694214 0q-5.625 0 -9.890625 -2.53125q-4.265625 -2.546875 -6.65625 -7.296875q-2.375 -4.765625 -2.375 -11.46875q0 -6.703125 2.375 -11.375q2.390625 -4.671875 6.65625 -7.109375q4.265625 -2.453125 9.890625 -2.453125q5.640625 0 9.90625 2.453125q4.265625 2.4375 6.640625 7.109375q2.375 4.671875 2.375 11.375q0 6.703125 -2.375 11.46875q-2.375 4.75 -6.640625 7.296875q-4.265625 2.53125 -9.90625 2.53125zm0 -9.265625q2.453125 0 4.234375 -1.46875q1.78125 -1.484375 2.71875 -4.171875q0.953125 -2.703125 0.953125 -6.390625q0 -3.703125 -0.953125 -6.296875q-0.9375 -2.609375 -2.71875 -3.984375q-1.78125 -1.375 -4.234375 -1.375q-2.4375 0 -4.234375 1.375q-1.78125 1.375 -2.71875 3.984375q-0.9375 2.59375 -0.9375 6.296875q0 3.6875 0.9375 6.390625q0.9375 2.6875 2.71875 4.171875q1.796875 1.46875 4.234375 1.46875zm26.201782 8.515625l0 -40.71875l11.015625 0l9.03125 18.15625l3.890625 9.15625l0.25 0q-0.375 -3.328125 -0.890625 -7.546875q-0.5 -4.234375 -0.5 -8.0l0 -11.765625l10.28125 0l0 40.71875l-11.03125 0l-9.015625 -18.234375l-3.890625 -9.078125l-0.25 0q0.375 3.4375 0.875 7.609375q0.5 4.171875 0.5 7.921875l0 11.78125l-10.265625 0zm49.870605 0l0 -31.703125l-10.78125 0l0 -9.015625l32.328125 0l0 9.015625l-10.765625 0l0 31.703125l-10.78125 0zm27.572449 0l0 -40.71875l15.40625 0q4.390625 0 8.078125 1.15625q3.703125 1.15625 5.953125 4.046875q2.265625 2.875 2.265625 7.953125q0 4.875 -2.265625 7.953125q-2.25 3.0625 -5.953125 4.515625q-3.6875 1.4375 -8.078125 1.4375l-4.640625 0l0 13.65625l-10.765625 0zm21.921875 0l-8.453125 -16.484375l7.265625 -7.140625l13.21875 23.625l-12.03125 0zm-11.15625 -22.1875l3.890625 0q3.203125 0 4.859375 -1.375q1.65625 -1.375 1.65625 -4.0q0 -2.640625 -1.65625 -3.640625q-1.65625 -1.0 -4.859375 -1.0l-3.890625 0l0 10.015625zm45.864014 22.9375q-5.625 0 -9.890625 -2.53125q-4.265625 -2.546875 -6.65625 -7.296875q-2.375 -4.765625 -2.375 -11.46875q0 -6.703125 2.375 -11.375q2.390625 -4.671875 6.65625 -7.109375q4.265625 -2.453125 9.890625 -2.453125q5.640625 0 9.90625 2.453125q4.265625 2.4375 6.640625 7.109375q2.375 4.671875 2.375 11.375q0 6.703125 -2.375 11.46875q-2.375 4.75 -6.640625 7.296875q-4.265625 2.53125 -9.90625 2.53125zm0 -9.265625q2.453125 0 4.234375 -1.46875q1.78125 -1.484375 2.71875 -4.171875q0.953125 -2.703125 0.953125 -6.390625q0 -3.703125 -0.953125 -6.296875q-0.9375 -2.609375 -2.71875 -3.984375q-1.78125 -1.375 -4.234375 -1.375q-2.4375 0 -4.234375 1.375q-1.78125 1.375 -2.71875 3.984375q-0.9375 2.59375 -0.9375 6.296875q0 3.6875 0.9375 6.390625q0.9375 2.6875 2.71875 4.171875q1.796875 1.46875 4.234375 1.46875zm26.201782 8.515625l0 -40.71875l10.765625 0l0 31.703125l15.421875 0l0 9.015625l-26.1875 0z" fill-rule="nonzero"/></g><g filter="url(#shadowFilter-p.3)"><use xlink:href="#p.3" transform="matrix(1.0 0.0 0.0 1.0 0.0 2.0)"/></g><defs><filter id="shadowFilter-p.3" filterUnits="userSpaceOnUse"><feGaussianBlur in="SourceAlpha" stdDeviation="32.0" result="blur"/><feComponentTransfer in="blur" color-interpolation-filters="sRGB"><feFuncR type="linear" slope="0" intercept="0.9764706"/><feFuncG type="linear" slope="0" intercept="0.9843137"/><feFuncB type="linear" slope="0" intercept="0.99215686"/><feFuncA type="linear" slope="0.4" intercept="0"/></feComponentTransfer></filter></defs><g id="p.3"><path fill="#49a8d8" d="m296.0305 158.31424c0.20211792 -3.1756134 -1.5058594 -14.375748 1.9529419 -22.095932c3.4588318 -7.7201843 9.278931 -16.849854 18.799896 -24.225151c9.520966 -7.3752975 24.54477 -16.279358 38.325928 -20.026642c13.781189 -3.747284 41.018616 -6.452286 44.361084 -2.4570618c3.3424683 3.995224 -24.86087 18.248177 -24.306244 26.428398c0.55462646 8.180222 22.87384 14.458588 27.634033 22.652908c4.760193 8.194321 13.027954 21.684082 0.927124 26.513016c-12.10083 4.8289337 -55.70633 4.0992126 -73.532074 2.4605865c-17.825745 -1.6386261 -27.728607 -10.750671 -33.422394 -12.292358c-5.6937866 -1.541687 -0.94241333 6.2178497 -0.7402954 3.0422363z" fill-rule="evenodd"/><path stroke="#073763" stroke-width="8.0" stroke-linejoin="round" stroke-linecap="butt" d="m296.0305 158.31424c0.20211792 -3.1756134 -1.5058594 -14.375748 1.9529419 -22.095932c3.4588318 -7.7201843 9.278931 -16.849854 18.799896 -24.225151c9.520966 -7.3752975 24.54477 -16.279358 38.325928 -20.026642c13.781189 -3.747284 41.018616 -6.452286 44.361084 -2.4570618c3.3424683 3.995224 -24.86087 18.248177 -24.306244 26.428398c0.55462646 8.180222 22.87384 14.458588 27.634033 22.652908c4.760193 8.194321 13.027954 21.684082 0.927124 26.513016c-12.10083 4.8289337 -55.70633 4.0992126 -73.532074 2.4605865c-17.825745 -1.6386261 -27.728607 -10.750671 -33.422394 -12.292358c-5.6937866 -1.541687 -0.94241333 6.2178497 -0.7402954 3.0422363z" fill-rule="evenodd"/></g><g filter="url(#shadowFilter-p.4)"><use xlink:href="#p.4" transform="matrix(1.0 0.0 0.0 1.0 0.0 22.0)"/></g><defs><filter id="shadowFilter-p.4" filterUnits="userSpaceOnUse"><feGaussianBlur in="SourceAlpha" stdDeviation="22.0" result="blur"/><feComponentTransfer in="blur" color-interpolation-filters="sRGB"><feFuncR type="linear" slope="0" intercept="0.70980394"/><feFuncG type="linear" slope="0" intercept="0.9019608"/><feFuncB type="linear" slope="0" intercept="1.0"/><feFuncA type="linear" slope="0.2" intercept="0"/></feComponentTransfer></filter></defs><g id="p.4"><path fill="#ffffff" d="m297.3404 334.24756l0 0c0 -23.665619 22.44217 -42.850403 50.125977 -42.850403l0 0c27.683807 0 50.125977 19.184784 50.125977 42.850403l0 0c0 23.665619 -22.44217 42.850403 -50.125977 42.850403l0 0c-27.683807 0 -50.125977 -19.184784 -50.125977 -42.850403z" fill-rule="evenodd"/><path stroke="#073763" stroke-width="8.0" stroke-linejoin="round" stroke-linecap="butt" d="m297.3404 334.24756l0 0c0 -23.665619 22.44217 -42.850403 50.125977 -42.850403l0 0c27.683807 0 50.125977 19.184784 50.125977 42.850403l0 0c0 23.665619 -22.44217 42.850403 -50.125977 42.850403l0 0c-27.683807 0 -50.125977 -19.184784 -50.125977 -42.850403z" fill-rule="evenodd"/></g><g filter="url(#shadowFilter-p.5)"><use xlink:href="#p.5" transform="matrix(1.0 0.0 0.0 1.0 0.0 22.0)"/></g><defs><filter id="shadowFilter-p.5" filterUnits="userSpaceOnUse"><feGaussianBlur in="SourceAlpha" stdDeviation="12.0" result="blur"/><feComponentTransfer in="blur" color-interpolation-filters="sRGB"><feFuncR type="linear" slope="0" intercept="0.15294118"/><feFuncG type="linear" slope="0" intercept="0.3019608"/><feFuncB type="linear" slope="0" intercept="0.6862745"/><feFuncA type="linear" slope="0.5" intercept="0"/></feComponentTransfer></filter></defs><g id="p.5"><path fill="#b5e6ff" d="m243.34523 240.2618l0 0c0 -35.581055 46.62584 -64.4252 104.14174 -64.4252l0 0c57.5159 0 104.14172 28.844147 104.14172 64.4252l0 0c0 35.58104 -46.625824 64.425186 -104.14172 64.425186l0 0c-57.5159 0 -104.14174 -28.844147 -104.14174 -64.425186z" fill-rule="evenodd"/><path stroke="#073763" stroke-width="8.0" stroke-linejoin="round" stroke-linecap="butt" d="m243.34523 240.2618l0 0c0 -35.581055 46.62584 -64.4252 104.14174 -64.4252l0 0c57.5159 0 104.14172 28.844147 104.14172 64.4252l0 0c0 35.58104 -46.625824 64.425186 -104.14172 64.425186l0 0c-57.5159 0 -104.14174 -28.844147 -104.14174 -64.425186z" fill-rule="evenodd"/></g><g filter="url(#shadowFilter-p.6)"><use xlink:href="#p.6" transform="matrix(1.0 0.0 0.0 1.0 0.0 2.0)"/></g><defs><filter id="shadowFilter-p.6" filterUnits="userSpaceOnUse"><feGaussianBlur in="SourceAlpha" stdDeviation="2.0" result="blur"/><feComponentTransfer in="blur" color-interpolation-filters="sRGB"><feFuncR type="linear" slope="0" intercept="0.0"/><feFuncG type="linear" slope="0" intercept="0.0"/><feFuncB type="linear" slope="0" intercept="0.0"/><feFuncA type="linear" slope="0.5" intercept="0"/></feComponentTransfer></filter></defs><g id="p.6"><path fill="#ffffff" d="m260.06198 210.5523l0 0c0 -19.172958 15.542755 -34.715714 34.7157 -34.715714l105.371735 0l0 0c9.207184 0 18.037262 3.657547 24.54773 10.167999c6.510437 6.5104523 10.167969 15.34053 10.167969 24.547714l0 66.47409c0 19.172974 -15.542725 34.7157 -34.7157 34.7157l-105.371735 0c-19.172943 0 -34.7157 -15.542725 -34.7157 -34.7157z" fill-rule="evenodd"/><path stroke="#073763" stroke-width="8.0" stroke-linejoin="round" stroke-linecap="butt" d="m260.06198 210.5523l0 0c0 -19.172958 15.542755 -34.715714 34.7157 -34.715714l105.371735 0l0 0c9.207184 0 18.037262 3.657547 24.54773 10.167999c6.510437 6.5104523 10.167969 15.34053 10.167969 24.547714l0 66.47409c0 19.172974 -15.542725 34.7157 -34.7157 34.7157l-105.371735 0c-19.172943 0 -34.7157 -15.542725 -34.7157 -34.7157z" fill-rule="evenodd"/></g><path fill="#073763" d="m286.30243 222.42458l0 0c0 -12.485748 10.121704 -22.607437 22.607452 -22.607437l77.115814 0l0 0c5.9958496 0 11.746155 2.3818512 15.98587 6.621567c4.2397156 4.2397156 6.621582 9.9900055 6.621582 15.98587l0 43.289047c0 12.485748 -10.121704 22.607452 -22.607452 22.607452l-77.115814 0c-12.485748 0 -22.607452 -10.121704 -22.607452 -22.607452z" fill-rule="evenodd"/><path stroke="#073763" stroke-width="8.0" stroke-linejoin="round" stroke-linecap="butt" d="m286.30243 222.42458l0 0c0 -12.485748 10.121704 -22.607437 22.607452 -22.607437l77.115814 0l0 0c5.9958496 0 11.746155 2.3818512 15.98587 6.621567c4.2397156 4.2397156 6.621582 9.9900055 6.621582 15.98587l0 43.289047c0 12.485748 -10.121704 22.607452 -22.607452 22.607452l-77.115814 0c-12.485748 0 -22.607452 -10.121704 -22.607452 -22.607452z" fill-rule="evenodd"/><path fill="#92ccf1" d="m322.8163 251.2386c6.0720825 -3.0917053 42.753906 -2.9399261 49.073944 0.005355835c6.3200073 2.945282 -5.081726 14.5746765 -11.153778 17.666382c-6.0720825 3.0917053 -18.958588 3.829132 -25.278595 0.8838501c-6.320038 -2.945282 -18.713623 -15.463882 -12.641571 -18.555588z" fill-rule="evenodd"/><g filter="url(#shadowFilter-p.7)"><use xlink:href="#p.7" transform="matrix(1.0 0.0 0.0 1.0 0.0 2.0)"/></g><defs><filter id="shadowFilter-p.7" filterUnits="userSpaceOnUse"><feGaussianBlur in="SourceAlpha" stdDeviation="2.0" result="blur"/><feComponentTransfer in="blur" color-interpolation-filters="sRGB"><feFuncR type="linear" slope="0" intercept="0.15294118"/><feFuncG type="linear" slope="0" intercept="0.35686275"/><feFuncB type="linear" slope="0" intercept="0.6862745"/><feFuncA type="linear" slope="0.5" intercept="0"/></feComponentTransfer></filter></defs><g id="p.7"><path fill="#72bbe0" d="m282.2998 169.83702l0 0c0 -11.976318 9.70871 -21.685043 21.685028 -21.685043l87.02362 0l0 0c5.7512207 0 11.266907 2.284668 15.333649 6.3513947c4.0667114 4.066742 6.3513794 9.582413 6.3513794 15.333649l0 0l0 0c0 11.976303 -9.70871 21.685028 -21.685028 21.685028l-87.02362 0c-11.976318 0 -21.685028 -9.708725 -21.685028 -21.685028z" fill-rule="evenodd"/><path stroke="#073763" stroke-width="8.0" stroke-linejoin="round" stroke-linecap="butt" d="m282.2998 169.83702l0 0c0 -11.976318 9.70871 -21.685043 21.685028 -21.685043l87.02362 0l0 0c5.7512207 0 11.266907 2.284668 15.333649 6.3513947c4.0667114 4.066742 6.3513794 9.582413 6.3513794 15.333649l0 0l0 0c0 11.976303 -9.70871 21.685028 -21.685028 21.685028l-87.02362 0c-11.976318 0 -21.685028 -9.708725 -21.685028 -21.685028z" fill-rule="evenodd"/></g><path fill="#073763" d="m318.6737 325.40607l0 28.865326l8.418884 0l0 -14.012695l11.990326 14.012695l8.000305 0l0 -28.865326l-8.418884 0l0 14.224396l-11.990326 -14.224396z" fill-rule="evenodd"/><path fill="#073763" d="m353.22656 325.40607l0 28.865326l9.16153 0l0 -10.366119l11.949829 0l0 -6.623932l-11.949829 0l0 -4.9508667l13.90094 0l0 -6.924408z" fill-rule="evenodd"/><path fill="#4ea7d5" d="m301.75546 162.62138l0 0c0.47781372 -3.7790375 3.9462585 -6.638077 7.74704 -6.385849l0 0l0 0c1.8251953 0.12110901 3.4844666 0.9581909 4.6128235 2.327057c1.1283569 1.3688812 1.6333618 3.157425 1.4039001 4.972183l-1.7342529 13.716476c-0.47781372 3.7790375 -3.946289 6.638077 -7.74704 6.385849l0 0l0 0c-3.8007812 -0.25222778 -6.494568 -3.5202026 -6.016754 -7.29924z" fill-rule="evenodd"/><path stroke="#4ea7d5" stroke-width="8.0" stroke-linejoin="round" stroke-linecap="butt" d="m301.75546 162.62138l0 0c0.47781372 -3.7790375 3.9462585 -6.638077 7.74704 -6.385849l0 0l0 0c1.8251953 0.12110901 3.4844666 0.9581909 4.6128235 2.327057c1.1283569 1.3688812 1.6333618 3.157425 1.4039001 4.972183l-1.7342529 13.716476c-0.47781372 3.7790375 -3.946289 6.638077 -7.74704 6.385849l0 0l0 0c-3.8007812 -0.25222778 -6.494568 -3.5202026 -6.016754 -7.29924z" fill-rule="evenodd"/><path fill="#4ea7d5" d="m339.7551 162.29869l0 0c0 -3.8094635 3.0881958 -6.897629 6.897644 -6.897629l0 0l0 0c1.8293762 0 3.5838013 0.7267151 4.8773804 2.0202637c1.2935486 1.2935638 2.0202637 3.0480042 2.0202637 4.877365l0 13.637802l0 0c0 3.8094635 -3.0881958 6.897629 -6.897644 6.897629l0 0l0 0c-3.8094482 0 -6.897644 -3.0881653 -6.897644 -6.897629z" fill-rule="evenodd"/><path stroke="#4ea7d5" stroke-width="8.0" stroke-linejoin="round" stroke-linecap="butt" d="m339.7551 162.29869l0 0c0 -3.8094635 3.0881958 -6.897629 6.897644 -6.897629l0 0l0 0c1.8293762 0 3.5838013 0.7267151 4.8773804 2.0202637c1.2935486 1.2935638 2.0202637 3.0480042 2.0202637 4.877365l0 13.637802l0 0c0 3.8094635 -3.0881958 6.897629 -6.897644 6.897629l0 0l0 0c-3.8094482 0 -6.897644 -3.0881653 -6.897644 -6.897629z" fill-rule="evenodd"/><path fill="#4ea7d5" d="m378.24347 163.79622l0 0c-0.7083435 -3.7361145 1.7844543 -7.075058 5.56781 -7.4577484l0 0l0 0c1.8168335 -0.1837616 3.694397 0.3527069 5.219635 1.4914093c1.5252075 1.1387177 2.5731812 2.786377 2.91333 4.5805206l2.6002197 13.7144165l0 0c0.7083435 3.7361145 -1.7844543 7.0750732 -5.5678406 7.4577484l0 0l0 0c-3.7833557 0.38269043 -7.4246216 -2.3358002 -8.132965 -6.0719147z" fill-rule="evenodd"/><path stroke="#4ea7d5" stroke-width="8.0" stroke-linejoin="round" stroke-linecap="butt" d="m378.24347 163.79622l0 0c-0.7083435 -3.7361145 1.7844543 -7.075058 5.56781 -7.4577484l0 0l0 0c1.8168335 -0.1837616 3.694397 0.3527069 5.219635 1.4914093c1.5252075 1.1387177 2.5731812 2.786377 2.91333 4.5805206l2.6002197 13.7144165l0 0c0.7083435 3.7361145 -1.7844543 7.0750732 -5.5678406 7.4577484l0 0l0 0c-3.7833557 0.38269043 -7.4246216 -2.3358002 -8.132965 -6.0719147z" fill-rule="evenodd"/><path fill="#49a8d8" d="m256.33847 216.40358l0 0c0 -6.018585 4.8790283 -10.897629 10.897644 -10.897629l167.93698 0c2.8902588 0 5.6621094 1.1481323 7.7058105 3.1918488c2.0437012 2.0437012 3.1918335 4.8155518 3.1918335 7.70578l0 0l0 0c0 6.0186005 -4.8790283 10.897644 -10.897644 10.897644l-167.93698 0c-6.0186157 0 -10.897644 -4.8790436 -10.897644 -10.897644z" fill-rule="evenodd"/><path stroke="#073763" stroke-width="8.0" stroke-linejoin="round" stroke-linecap="butt" d="m256.33847 216.40358l0 0c0 -6.018585 4.8790283 -10.897629 10.897644 -10.897629l167.93698 0c2.8902588 0 5.6621094 1.1481323 7.7058105 3.1918488c2.0437012 2.0437012 3.1918335 4.8155518 3.1918335 7.70578l0 0l0 0c0 6.0186005 -4.8790283 10.897644 -10.897644 10.897644l-167.93698 0c-6.0186157 0 -10.897644 -4.8790436 -10.897644 -10.897644z" fill-rule="evenodd"/><g filter="url(#shadowFilter-p.8)"><use xlink:href="#p.8" transform="matrix(1.0 0.0 0.0 1.0 0.0 2.0)"/></g><defs><filter id="shadowFilter-p.8" filterUnits="userSpaceOnUse"><feGaussianBlur in="SourceAlpha" stdDeviation="2.0" result="blur"/><feComponentTransfer in="blur" color-interpolation-filters="sRGB"><feFuncR type="linear" slope="0" intercept="0.0"/><feFuncG type="linear" slope="0" intercept="0.0"/><feFuncB type="linear" slope="0" intercept="0.0"/><feFuncA type="linear" slope="0.5" intercept="0"/></feComponentTransfer></filter></defs><g id="p.8"><path fill="#b5e6ff" d="m287.8305 243.3251c-6.493561 -4.46521 -10.145569 -17.140915 -7.54776 -24.089493c2.5978088 -6.948578 11.725464 -13.672256 23.134613 -17.60202c11.409119 -3.9297485 30.693542 -5.976486 45.32016 -5.976486c14.626617 0 31.5896 1.99263 42.439514 5.976486c10.849945 3.9838715 19.602661 11.049606 22.660095 17.926682c3.057434 6.87706 2.1586304 19.067184 -4.315399 23.335709c-6.47406 4.268524 -24.066925 3.5110016 -34.52887 2.2754211c-10.461945 -1.2355804 -18.951324 -9.831436 -28.242767 -9.688873c-9.291443 0.14256287 -17.685913 9.237183 -27.50586 10.544266c-9.819916 1.3070984 -24.920135 1.763504 -31.413727 -2.7016907z" fill-rule="evenodd"/><path stroke="#073763" stroke-width="8.0" stroke-linejoin="round" stroke-linecap="butt" d="m287.8305 243.3251c-6.493561 -4.46521 -10.145569 -17.140915 -7.54776 -24.089493c2.5978088 -6.948578 11.725464 -13.672256 23.134613 -17.60202c11.409119 -3.9297485 30.693542 -5.976486 45.32016 -5.976486c14.626617 0 31.5896 1.99263 42.439514 5.976486c10.849945 3.9838715 19.602661 11.049606 22.660095 17.926682c3.057434 6.87706 2.1586304 19.067184 -4.315399 23.335709c-6.47406 4.268524 -24.066925 3.5110016 -34.52887 2.2754211c-10.461945 -1.2355804 -18.951324 -9.831436 -28.242767 -9.688873c-9.291443 0.14256287 -17.685913 9.237183 -27.50586 10.544266c-9.819916 1.3070984 -24.920135 1.763504 -31.413727 -2.7016907z" fill-rule="evenodd"/></g><g filter="url(#shadowFilter-p.9)"><use xlink:href="#p.9" transform="matrix(1.0 0.0 0.0 1.0 2.0 0.0)"/></g><defs><filter id="shadowFilter-p.9" filterUnits="userSpaceOnUse"><feGaussianBlur in="SourceAlpha" stdDeviation="15.5" result="blur"/><feComponentTransfer in="blur" color-interpolation-filters="sRGB"><feFuncR type="linear" slope="0" intercept="1.0"/><feFuncG type="linear" slope="0" intercept="0.8509804"/><feFuncB type="linear" slope="0" intercept="0.4"/><feFuncA type="linear" slope="0.7" intercept="0"/></feComponentTransfer></filter></defs><g id="p.9"><path fill="#ffd966" d="m875.0316 182.50389l0 0c-36.250732 21.552155 -77.29956 18.95752 -91.68506 -5.795273c-14.385498 -24.752792 3.3398438 -62.290375 39.590576 -83.84252l0 0c-19.40802 45.626915 3.2391968 84.59545 52.094482 89.637794z" fill-rule="evenodd"/><path stroke="#f6b26b" stroke-width="4.0" stroke-linejoin="round" stroke-linecap="butt" d="m875.0316 182.50389l0 0c-36.250732 21.552155 -77.29956 18.95752 -91.68506 -5.795273c-14.385498 -24.752792 3.3398438 -62.290375 39.590576 -83.84252l0 0c-19.40802 45.626915 3.2391968 84.59545 52.094482 89.637794z" fill-rule="evenodd"/></g><path fill="#f9fbfd" d="m389.06735 99.40682l0 0c0 -9.080086 7.2903748 -16.440948 16.283478 -16.440948l0 0c4.318634 0 8.460419 1.7321701 11.51416 4.815445c3.0537415 3.0832748 4.7693176 7.265091 4.7693176 11.625504l0 0c0 9.080086 -7.2903748 16.440948 -16.283478 16.440948l0 0c-8.993103 0 -16.283478 -7.3608627 -16.283478 -16.440948z" fill-rule="evenodd"/><path stroke="#073763" stroke-width="8.0" stroke-linejoin="round" stroke-linecap="butt" d="m389.06735 99.40682l0 0c0 -9.080086 7.2903748 -16.440948 16.283478 -16.440948l0 0c4.318634 0 8.460419 1.7321701 11.51416 4.815445c3.0537415 3.0832748 4.7693176 7.265091 4.7693176 11.625504l0 0c0 9.080086 -7.2903748 16.440948 -16.283478 16.440948l0 0c-8.993103 0 -16.283478 -7.3608627 -16.283478 -16.440948z" fill-rule="evenodd"/><g filter="url(#shadowFilter-p.10)"><use xlink:href="#p.10" transform="matrix(1.0 0.0 0.0 1.0 0.0 22.0)"/></g><defs><filter id="shadowFilter-p.10" filterUnits="userSpaceOnUse"><feGaussianBlur in="SourceAlpha" stdDeviation="2.0" result="blur"/><feComponentTransfer in="blur" color-interpolation-filters="sRGB"><feFuncR type="linear" slope="0" intercept="0.15294118"/><feFuncG type="linear" slope="0" intercept="0.3019608"/><feFuncB type="linear" slope="0" intercept="0.6862745"/><feFuncA type="linear" slope="0.5" intercept="0"/></feComponentTransfer></filter></defs><g id="p.10"><path fill="#0b5394" d="m255.7633 179.21892c-1.6211548 -0.5691223 -3.2650452 -1.1941833 -4.931671 -1.8751984c-0.5813751 -0.23756409 -1.4133453 -0.54382324 -2.4958954 -0.91877747c-0.9019623 -0.27523804 -1.7642212 -0.58091736 -2.5867615 -0.9170227l-0.3780365 -0.2011261c-0.08628845 -0.097473145 -0.22203064 -0.18403625 -0.4072113 -0.2597046c-0.2626953 -0.10734558 -0.5249176 -0.103027344 -0.7866516 0.012939453l-0.20285034 0.15040588c-0.033828735 0.08467102 -0.10417175 0.18553162 -0.21102905 0.3025818c-0.14242554 0.35653687 -0.25860596 0.6097412 -0.34854126 0.7596283c-0.16555786 0.4144745 -0.29330444 0.6966553 -0.38323975 0.84654236l-0.2136383 0.5348053c-0.4593048 1.1498413 -0.76368713 2.0623016 -0.9131317 2.737381c-0.111312866 0.59217834 -0.13223267 1.0709381 -0.06277466 1.4362946c0.071243286 0.36090088 0.26620483 0.6064606 0.5848999 0.7366791l6.450226 2.6823273c0.107666016 0.04399109 0.13479614 0.13284302 0.08137512 0.26654053c-0.06585693 0.16490173 -0.2519226 0.36105347 -0.55815125 0.58843994c-0.21006775 0.13708496 -0.43302917 0.26889038 -0.66893005 0.39543152c-0.23590088 0.12652588 -0.45137024 0.24584961 -0.6464386 0.35795593l-3.6707 1.8905334c0 0 -0.9900055 0.44049072 -2.9700012 1.3214874l-2.3168335 1.0595703l-2.6090088 6.5313416c-0.076553345 0.19163513 -0.060516357 0.42111206 0.048110962 0.6884155c0.10864258 0.26731873 0.26846313 0.44407654 0.47947693 0.53030396l2.7616882 1.1751404c0.5190277 0.24317932 1.2823944 0.57066345 2.2901306 0.98243713c1.0444183 0.45787048 2.744461 1.1680908 5.100128 2.130661l6.0334473 2.4653625c0.63305664 0.25868225 1.1249542 0.4130249 1.4756927 0.4630127c0.39349365 0.09339905 0.6601105 0.12199402 0.79981995 0.085754395c0.21899414 -0.009002686 0.3721161 -0.12269592 0.4593506 -0.3410797l2.2965698 -5.749176c0.076538086 -0.19165039 0.048950195 -0.39215088 -0.08282471 -0.6015167c-0.13000488 -0.21383667 -0.3005066 -0.36386108 -0.51153564 -0.4500885l-6.194931 -2.5313568c3.7754364 -1.7388763 6.7421417 -3.3468323 8.900101 -4.8238525c0.6730652 -0.45594788 1.2481995 -0.9363556 1.7254028 -1.4412231c0.3569336 -0.42959595 0.5843811 -0.76693726 0.6822815 -1.0120697l2.280548 -5.7090607c0.010681152 -0.026748657 0.023132324 -0.13311768 0.037322998 -0.31913757l-0.4794922 -0.53030396c-0.5261841 -0.37571716 -1.4912415 -0.8504181 -2.895172 -1.4240875z" fill-rule="evenodd"/><path stroke="#f9fbfd" stroke-width="3.0" stroke-linejoin="round" stroke-linecap="butt" d="m255.7633 179.21892c-1.6211548 -0.5691223 -3.2650452 -1.1941833 -4.931671 -1.8751984c-0.5813751 -0.23756409 -1.4133453 -0.54382324 -2.4958954 -0.91877747c-0.9019623 -0.27523804 -1.7642212 -0.58091736 -2.5867615 -0.9170227l-0.3780365 -0.2011261c-0.08628845 -0.097473145 -0.22203064 -0.18403625 -0.4072113 -0.2597046c-0.2626953 -0.10734558 -0.5249176 -0.103027344 -0.7866516 0.012939453l-0.20285034 0.15040588c-0.033828735 0.08467102 -0.10417175 0.18553162 -0.21102905 0.3025818c-0.14242554 0.35653687 -0.25860596 0.6097412 -0.34854126 0.7596283c-0.16555786 0.4144745 -0.29330444 0.6966553 -0.38323975 0.84654236l-0.2136383 0.5348053c-0.4593048 1.1498413 -0.76368713 2.0623016 -0.9131317 2.737381c-0.111312866 0.59217834 -0.13223267 1.0709381 -0.06277466 1.4362946c0.071243286 0.36090088 0.26620483 0.6064606 0.5848999 0.7366791l6.450226 2.6823273c0.107666016 0.04399109 0.13479614 0.13284302 0.08137512 0.26654053c-0.06585693 0.16490173 -0.2519226 0.36105347 -0.55815125 0.58843994c-0.21006775 0.13708496 -0.43302917 0.26889038 -0.66893005 0.39543152c-0.23590088 0.12652588 -0.45137024 0.24584961 -0.6464386 0.35795593l-3.6707 1.8905334c0 0 -0.9900055 0.44049072 -2.9700012 1.3214874l-2.3168335 1.0595703l-2.6090088 6.5313416c-0.076553345 0.19163513 -0.060516357 0.42111206 0.048110962 0.6884155c0.10864258 0.26731873 0.26846313 0.44407654 0.47947693 0.53030396l2.7616882 1.1751404c0.5190277 0.24317932 1.2823944 0.57066345 2.2901306 0.98243713c1.0444183 0.45787048 2.744461 1.1680908 5.100128 2.130661l6.0334473 2.4653625c0.63305664 0.25868225 1.1249542 0.4130249 1.4756927 0.4630127c0.39349365 0.09339905 0.6601105 0.12199402 0.79981995 0.085754395c0.21899414 -0.009002686 0.3721161 -0.12269592 0.4593506 -0.3410797l2.2965698 -5.749176c0.076538086 -0.19165039 0.048950195 -0.39215088 -0.08282471 -0.6015167c-0.13000488 -0.21383667 -0.3005066 -0.36386108 -0.51153564 -0.4500885l-6.194931 -2.5313568c3.7754364 -1.7388763 6.7421417 -3.3468323 8.900101 -4.8238525c0.6730652 -0.45594788 1.2481995 -0.9363556 1.7254028 -1.4412231c0.3569336 -0.42959595 0.5843811 -0.76693726 0.6822815 -1.0120697l2.280548 -5.7090607c0.010681152 -0.026748657 0.023132324 -0.13311768 0.037322998 -0.31913757l-0.4794922 -0.53030396c-0.5261841 -0.37571716 -1.4912415 -0.8504181 -2.895172 -1.4240875z" fill-rule="evenodd"/></g><g filter="url(#shadowFilter-p.11)"><use xlink:href="#p.11" transform="matrix(1.0 0.0 0.0 1.0 0.0 22.0)"/></g><defs><filter id="shadowFilter-p.11" filterUnits="userSpaceOnUse"><feGaussianBlur in="SourceAlpha" stdDeviation="2.0" result="blur"/><feComponentTransfer in="blur" color-interpolation-filters="sRGB"><feFuncR type="linear" slope="0" intercept="0.15294118"/><feFuncG type="linear" slope="0" intercept="0.3019608"/><feFuncB type="linear" slope="0" intercept="0.6862745"/><feFuncA type="linear" slope="0.5" intercept="0"/></feComponentTransfer></filter></defs><g id="p.11"><path fill="#0b5394" d="m224.68767 146.41318c-2.155716 -0.75686646 -4.34169 -1.5881195 -6.5578766 -2.4937897c-0.7731018 -0.31593323 -1.8794098 -0.7232208 -3.318924 -1.2218628c-1.1993866 -0.3660431 -2.3459778 -0.7725525 -3.4397583 -1.2195435l-0.5026703 -0.26745605c-0.11476135 -0.12963867 -0.29525757 -0.24476624 -0.5415039 -0.34539795c-0.34931946 -0.14274597 -0.69799805 -0.13700867 -1.046051 0.017211914l-0.26974487 0.19999695c-0.04496765 0.11260986 -0.13851929 0.24673462 -0.2806244 0.40238953c-0.18939209 0.47413635 -0.34388733 0.8108673 -0.46347046 1.0101776c-0.22016907 0.55119324 -0.39004517 0.92645264 -0.50964355 1.1257629l-0.28408813 0.71121216c-0.61079407 1.5290985 -1.0155487 2.7425232 -1.2142944 3.6402893c-0.14802551 0.78749084 -0.17585754 1.4241638 -0.083496094 1.9100342c0.09472656 0.4799347 0.35398865 0.8065033 0.77775574 0.9796753l8.577179 3.5671844c0.14317322 0.058502197 0.179245 0.176651 0.10821533 0.35446167c-0.08758545 0.21928406 -0.3350067 0.4801178 -0.7422333 0.7825165c-0.2793274 0.18229675 -0.5758209 0.35757446 -0.8895111 0.52583313c-0.31367493 0.16827393 -0.6002197 0.3269348 -0.8596039 0.47602844l-4.88118 2.5140686c0 0 -1.3164673 0.58576965 -3.9493866 1.757309l-3.080841 1.4090424l-3.469452 8.685623c-0.10180664 0.2548523 -0.08047485 0.5600128 0.063964844 0.9154968c0.14445496 0.35546875 0.35697937 0.59054565 0.63757324 0.70521545l3.6723633 1.5627899c0.690155 0.32341003 1.7052612 0.75891113 3.045288 1.3065186c1.3888092 0.60891724 3.6494446 1.553421 6.781891 2.8335266l8.02298 3.2786407c0.8417969 0.34402466 1.4958954 0.54927063 1.9622803 0.61576843c0.52326965 0.12420654 0.87779236 0.16223145 1.0635681 0.11404419c0.29122925 -0.011962891 0.49484253 -0.16316223 0.61083984 -0.45358276l3.0539703 -7.6454773c0.10179138 -0.25483704 0.065078735 -0.5214844 -0.11013794 -0.7999115c-0.17285156 -0.2843628 -0.3995819 -0.48387146 -0.68019104 -0.59854126l-8.237717 -3.3664093c5.020447 -2.3123932 8.965454 -4.4506683 11.835068 -6.4148407c0.8950043 -0.60632324 1.65979 -1.2451935 2.2943573 -1.9165802c0.4746704 -0.57128906 0.7770996 -1.0199127 0.9073181 -1.3458862l3.0326538 -7.5921326c0.014205933 -0.03555298 0.03074646 -0.17703247 0.049621582 -0.4243927l-0.63757324 -0.7052307c-0.69970703 -0.4996643 -1.9829865 -1.1309357 -3.8498535 -1.8938599z" fill-rule="evenodd"/><path stroke="#f9fbfd" stroke-width="3.0" stroke-linejoin="round" stroke-linecap="butt" d="m224.68767 146.41318c-2.155716 -0.75686646 -4.34169 -1.5881195 -6.5578766 -2.4937897c-0.7731018 -0.31593323 -1.8794098 -0.7232208 -3.318924 -1.2218628c-1.1993866 -0.3660431 -2.3459778 -0.7725525 -3.4397583 -1.2195435l-0.5026703 -0.26745605c-0.11476135 -0.12963867 -0.29525757 -0.24476624 -0.5415039 -0.34539795c-0.34931946 -0.14274597 -0.69799805 -0.13700867 -1.046051 0.017211914l-0.26974487 0.19999695c-0.04496765 0.11260986 -0.13851929 0.24673462 -0.2806244 0.40238953c-0.18939209 0.47413635 -0.34388733 0.8108673 -0.46347046 1.0101776c-0.22016907 0.55119324 -0.39004517 0.92645264 -0.50964355 1.1257629l-0.28408813 0.71121216c-0.61079407 1.5290985 -1.0155487 2.7425232 -1.2142944 3.6402893c-0.14802551 0.78749084 -0.17585754 1.4241638 -0.083496094 1.9100342c0.09472656 0.4799347 0.35398865 0.8065033 0.77775574 0.9796753l8.577179 3.5671844c0.14317322 0.058502197 0.179245 0.176651 0.10821533 0.35446167c-0.08758545 0.21928406 -0.3350067 0.4801178 -0.7422333 0.7825165c-0.2793274 0.18229675 -0.5758209 0.35757446 -0.8895111 0.52583313c-0.31367493 0.16827393 -0.6002197 0.3269348 -0.8596039 0.47602844l-4.88118 2.5140686c0 0 -1.3164673 0.58576965 -3.9493866 1.757309l-3.080841 1.4090424l-3.469452 8.685623c-0.10180664 0.2548523 -0.08047485 0.5600128 0.063964844 0.9154968c0.14445496 0.35546875 0.35697937 0.59054565 0.63757324 0.70521545l3.6723633 1.5627899c0.690155 0.32341003 1.7052612 0.75891113 3.045288 1.3065186c1.3888092 0.60891724 3.6494446 1.553421 6.781891 2.8335266l8.02298 3.2786407c0.8417969 0.34402466 1.4958954 0.54927063 1.9622803 0.61576843c0.52326965 0.12420654 0.87779236 0.16223145 1.0635681 0.11404419c0.29122925 -0.011962891 0.49484253 -0.16316223 0.61083984 -0.45358276l3.0539703 -7.6454773c0.10179138 -0.25483704 0.065078735 -0.5214844 -0.11013794 -0.7999115c-0.17285156 -0.2843628 -0.3995819 -0.48387146 -0.68019104 -0.59854126l-8.237717 -3.3664093c5.020447 -2.3123932 8.965454 -4.4506683 11.835068 -6.4148407c0.8950043 -0.60632324 1.65979 -1.2451935 2.2943573 -1.9165802c0.4746704 -0.57128906 0.7770996 -1.0199127 0.9073181 -1.3458862l3.0326538 -7.5921326c0.014205933 -0.03555298 0.03074646 -0.17703247 0.049621582 -0.4243927l-0.63757324 -0.7052307c-0.69970703 -0.4996643 -1.9829865 -1.1309357 -3.8498535 -1.8938599z" fill-rule="evenodd"/></g><g filter="url(#shadowFilter-p.12)"><use xlink:href="#p.12" transform="matrix(1.0 0.0 0.0 1.0 0.0 22.0)"/></g><defs><filter id="shadowFilter-p.12" filterUnits="userSpaceOnUse"><feGaussianBlur in="SourceAlpha" stdDeviation="2.0" result="blur"/><feComponentTransfer in="blur" color-interpolation-filters="sRGB"><feFuncR type="linear" slope="0" intercept="0.15294118"/><feFuncG type="linear" slope="0" intercept="0.3019608"/><feFuncB type="linear" slope="0" intercept="0.6862745"/><feFuncA type="linear" slope="0.5" intercept="0"/></feComponentTransfer></filter></defs><g id="p.12"><path fill="#0b5394" d="m261.33557 93.90526c-3.052948 -1.0718689 -6.1487274 -2.249115 -9.287323 -3.5317307c-1.0948486 -0.4474182 -2.6616058 -1.024231 -4.7002716 -1.7304153c-1.6985779 -0.5184021 -3.3223724 -1.0941086 -4.871399 -1.7271271l-0.7118988 -0.37879944c-0.1625061 -0.18357086 -0.4181366 -0.34661865 -0.7668762 -0.4891281c-0.4947052 -0.20217133 -0.98851013 -0.19405365 -1.4814148 0.024353027l-0.38200378 0.28324127c-0.063705444 0.15947723 -0.19618225 0.3494339 -0.39744568 0.56985474c-0.268219 0.67147064 -0.4869995 1.148346 -0.6563568 1.4306259c-0.3117981 0.78058624 -0.5523834 1.3120193 -0.7217407 1.5942993l-0.4023285 1.0072098c-0.8650055 2.1655045 -1.4382324 3.8839645 -1.7196655 5.1553726c-0.2096405 1.115242 -0.24905396 2.0169144 -0.118255615 2.7049942c0.13417053 0.6796951 0.50131226 1.1421661 1.1014557 1.3874207l12.147079 5.05188c0.20274353 0.082862854 0.25382996 0.25019073 0.15324402 0.5019913c-0.1240387 0.31056213 -0.47442627 0.6799545 -1.0511475 1.1082001c-0.3955841 0.25817108 -0.8154907 0.5064087 -1.2597198 0.7446976c-0.44424438 0.23828888 -0.8500366 0.46299744 -1.217392 0.6741257l-6.912735 3.5604095c0 0 -1.8643799 0.8295593 -5.5931244 2.4886932l-4.3631134 1.9954681l-4.9134064 12.30056c-0.14416504 0.36091614 -0.113967896 0.7930908 0.09059143 1.296524c0.20457458 0.5034332 0.50553894 0.8363495 0.90293884 0.9987488l5.2008057 2.2132263c0.97743225 0.4580078 2.4150085 1.0747833 4.3127594 1.8503113c1.9668579 0.86235046 5.1683807 2.1999817 9.6045685 4.0128784l11.362198 4.6432495c1.1921692 0.48719788 2.1184998 0.7778778 2.7789917 0.87205505c0.74105835 0.17590332 1.2431335 0.22975159 1.5062256 0.16152954c0.41244507 -0.016967773 0.70080566 -0.2310791 0.8650818 -0.6423645l4.325012 -10.827515c0.14416504 -0.36091614 0.092163086 -0.73854065 -0.15597534 -1.1328583c-0.2447815 -0.4026947 -0.56588745 -0.68525696 -0.96328735 -0.84765625l-11.666306 -4.76754c7.1099396 -3.2747803 12.696915 -6.302994 16.760849 -9.0846405c1.2675171 -0.8586807 2.350586 -1.7634277 3.2492676 -2.7142563c0.6722412 -0.8090439 1.1005249 -1.4443893 1.2849426 -1.9060287l4.2948303 -10.751976c0.020111084 -0.050361633 0.043548584 -0.2507019 0.07028198 -0.60102844l-0.9029541 -0.99874115c-0.99090576 -0.70762634 -2.808319 -1.601654 -5.452179 -2.6820984z" fill-rule="evenodd"/><path stroke="#f9fbfd" stroke-width="3.0" stroke-linejoin="round" stroke-linecap="butt" d="m261.33557 93.90526c-3.052948 -1.0718689 -6.1487274 -2.249115 -9.287323 -3.5317307c-1.0948486 -0.4474182 -2.6616058 -1.024231 -4.7002716 -1.7304153c-1.6985779 -0.5184021 -3.3223724 -1.0941086 -4.871399 -1.7271271l-0.7118988 -0.37879944c-0.1625061 -0.18357086 -0.4181366 -0.34661865 -0.7668762 -0.4891281c-0.4947052 -0.20217133 -0.98851013 -0.19405365 -1.4814148 0.024353027l-0.38200378 0.28324127c-0.063705444 0.15947723 -0.19618225 0.3494339 -0.39744568 0.56985474c-0.268219 0.67147064 -0.4869995 1.148346 -0.6563568 1.4306259c-0.3117981 0.78058624 -0.5523834 1.3120193 -0.7217407 1.5942993l-0.4023285 1.0072098c-0.8650055 2.1655045 -1.4382324 3.8839645 -1.7196655 5.1553726c-0.2096405 1.115242 -0.24905396 2.0169144 -0.118255615 2.7049942c0.13417053 0.6796951 0.50131226 1.1421661 1.1014557 1.3874207l12.147079 5.05188c0.20274353 0.082862854 0.25382996 0.25019073 0.15324402 0.5019913c-0.1240387 0.31056213 -0.47442627 0.6799545 -1.0511475 1.1082001c-0.3955841 0.25817108 -0.8154907 0.5064087 -1.2597198 0.7446976c-0.44424438 0.23828888 -0.8500366 0.46299744 -1.217392 0.6741257l-6.912735 3.5604095c0 0 -1.8643799 0.8295593 -5.5931244 2.4886932l-4.3631134 1.9954681l-4.9134064 12.30056c-0.14416504 0.36091614 -0.113967896 0.7930908 0.09059143 1.296524c0.20457458 0.5034332 0.50553894 0.8363495 0.90293884 0.9987488l5.2008057 2.2132263c0.97743225 0.4580078 2.4150085 1.0747833 4.3127594 1.8503113c1.9668579 0.86235046 5.1683807 2.1999817 9.6045685 4.0128784l11.362198 4.6432495c1.1921692 0.48719788 2.1184998 0.7778778 2.7789917 0.87205505c0.74105835 0.17590332 1.2431335 0.22975159 1.5062256 0.16152954c0.41244507 -0.016967773 0.70080566 -0.2310791 0.8650818 -0.6423645l4.325012 -10.827515c0.14416504 -0.36091614 0.092163086 -0.73854065 -0.15597534 -1.1328583c-0.2447815 -0.4026947 -0.56588745 -0.68525696 -0.96328735 -0.84765625l-11.666306 -4.76754c7.1099396 -3.2747803 12.696915 -6.302994 16.760849 -9.0846405c1.2675171 -0.8586807 2.350586 -1.7634277 3.2492676 -2.7142563c0.6722412 -0.8090439 1.1005249 -1.4443893 1.2849426 -1.9060287l4.2948303 -10.751976c0.020111084 -0.050361633 0.043548584 -0.2507019 0.07028198 -0.60102844l-0.9029541 -0.99874115c-0.99090576 -0.70762634 -2.808319 -1.601654 -5.452179 -2.6820984z" fill-rule="evenodd"/></g><g filter="url(#shadowFilter-p.13)"><use xlink:href="#p.13" transform="matrix(1.0 0.0 0.0 1.0 2.0 0.0)"/></g><defs><filter id="shadowFilter-p.13" filterUnits="userSpaceOnUse"><feGaussianBlur in="SourceAlpha" stdDeviation="15.5" result="blur"/><feComponentTransfer in="blur" color-interpolation-filters="sRGB"><feFuncR type="linear" slope="0" intercept="1.0"/><feFuncG type="linear" slope="0" intercept="0.8509804"/><feFuncB type="linear" slope="0" intercept="0.4"/><feFuncA type="linear" slope="0.7" intercept="0"/></feComponentTransfer></filter></defs><g id="p.13"><path fill="#ffd966" d="m134.5855 337.02188l33.468826 -14.484436l-3.4086456 -36.27249l24.093033 27.320648l33.468643 -14.484894l-18.578522 31.369537l24.0934 27.320312l-35.57518 -7.933197l-18.57811 31.369781l-3.4081573 -36.272522z" fill-rule="evenodd"/><path stroke="#f6b26b" stroke-width="4.0" stroke-linejoin="round" stroke-linecap="butt" d="m134.5855 337.02188l33.468826 -14.484436l-3.4086456 -36.27249l24.093033 27.320648l33.468643 -14.484894l-18.578522 31.369537l24.0934 27.320312l-35.57518 -7.933197l-18.57811 31.369781l-3.4081573 -36.272522z" fill-rule="evenodd"/></g></g></svg>