<svg version="1.1" viewBox="0.0 0.0 960.0 480.0" fill="none" stroke="none" stroke-linecap="square" stroke-miterlimit="10" xmlns:xlink="http://www.w3.org/1999/xlink" xmlns="http://www.w3.org/2000/svg"><clipPath id="p.0"><path d="m0 0l960.0 0l0 480.0l-960.0 0l0 -480.0z" clip-rule="nonzero"/></clipPath><g clip-path="url(#p.0)"><path fill="#b5e6ff" d="m0 0l960.0 0l0 480.0l-960.0 0z" fill-rule="evenodd"/><g filter="url(#shadowFilter-p.1)"><use xlink:href="#p.1" transform="matrix(1.0 0.0 0.0 1.0 0.0 2.0)"/></g><defs><filter id="shadowFilter-p.1" filterUnits="userSpaceOnUse"><feGaussianBlur in="SourceAlpha" stdDeviation="2.0" result="blur"/><feComponentTransfer in="blur" color-interpolation-filters="sRGB"><feFuncR type="linear" slope="0" intercept="0.92941177"/><feFuncG type="linear" slope="0" intercept="0.96862745"/><feFuncB type="linear" slope="0" intercept="0.94509804"/><feFuncA type="linear" slope="0.55" intercept="0"/></feComponentTransfer></filter></defs><g id="p.1"><path fill="#000000" fill-opacity="0.0" d="m482.11023 317.65878l308.9449 0l0 45.5748l-308.9449 0z" fill-rule="evenodd"/><path fill="#0e73a3" d="m514.4343 349.2348l0 -22.71875l10.25 0q1.59375 0 2.953125 0.65625q1.359375 0.65625 2.34375 1.765625q1.0 1.09375 1.5625 2.46875q0.5625 1.375 0.5625 2.78125q0 1.421875 -0.453125 2.6875q-0.453125 1.25 -1.28125 2.265625q-0.828125 1.0 -1.984375 1.640625l5.0 8.453125l-5.796875 0l-4.359375 -7.328125l-3.546875 0l0 7.328125l-5.25 0zm5.25 -11.90625l4.796875 0q0.640625 0 1.140625 -0.390625q0.5 -0.40625 0.8125 -1.109375q0.328125 -0.703125 0.328125 -1.640625q0 -0.921875 -0.375 -1.609375q-0.359375 -0.6875 -0.90625 -1.0625q-0.546875 -0.390625 -1.15625 -0.390625l-4.640625 0l0 6.203125zm16.190002 11.90625l0 -22.71875l5.25 0l0 18.109375l11.015625 0l0 4.609375l-16.265625 0zm25.248047 0l0 -22.71875l5.25 0l0 22.71875l-5.25 0zm25.381287 0l-5.125 0l0 -9.4375q0 -1.671875 -0.625 -2.421875q-0.625 -0.75 -1.640625 -0.75q-0.703125 0 -1.4375 0.390625q-0.734375 0.375 -1.328125 1.046875q-0.59375 0.671875 -0.921875 1.546875l0 9.625l-5.109375 0l0 -16.796875l4.609375 0l0 2.8125q0.640625 -0.984375 1.59375 -1.6875q0.953125 -0.71875 2.203125 -1.078125q1.25 -0.375 2.71875 -0.375q1.640625 0 2.640625 0.59375q1.015625 0.59375 1.53125 1.5625q0.53125 0.953125 0.703125 2.0625q0.1875 1.09375 0.1875 2.15625l0 10.75zm9.81842 0.3125q-2.140625 0 -4.1875 -0.703125q-2.046875 -0.703125 -3.453125 -2.078125l1.75 -3.234375q1.546875 1.125 3.0 1.703125q1.453125 0.578125 2.734375 0.578125q1.0 0 1.53125 -0.3125q0.546875 -0.328125 0.546875 -1.0q0 -0.484375 -0.328125 -0.75q-0.3125 -0.28125 -0.96875 -0.5q-0.65625 -0.21875 -1.609375 -0.484375q-1.921875 -0.640625 -3.203125 -1.234375q-1.28125 -0.609375 -1.921875 -1.484375q-0.640625 -0.890625 -0.640625 -2.296875q0 -1.703125 0.84375 -2.96875q0.859375 -1.265625 2.421875 -1.96875q1.5625 -0.703125 3.75 -0.703125q1.71875 0 3.359375 0.546875q1.65625 0.546875 3.09375 1.828125l-1.984375 3.203125q-1.4375 -1.0 -2.5625 -1.4375q-1.109375 -0.453125 -2.171875 -0.453125q-0.546875 0 -1.0 0.125q-0.4375 0.125 -0.71875 0.4375q-0.265625 0.296875 -0.265625 0.78125q0 0.484375 0.265625 0.765625q0.28125 0.28125 0.875 0.5q0.59375 0.203125 1.484375 0.484375q2.078125 0.609375 3.453125 1.234375q1.375 0.625 2.0625 1.546875q0.703125 0.90625 0.703125 2.40625q0 2.5625 -1.84375 4.015625q-1.84375 1.453125 -5.015625 1.453125zm9.310303 -6.359375l0 -10.75l5.125 0l0 9.625q0 1.546875 0.609375 2.359375q0.609375 0.8125 1.734375 0.8125q0.703125 0 1.34375 -0.234375q0.640625 -0.25 1.234375 -0.78125q0.609375 -0.546875 1.09375 -1.421875l0 -10.359375l5.125 0l0 11.09375q0 0.78125 0.234375 1.09375q0.25 0.296875 0.84375 0.359375l0 4.25q-0.703125 0.125 -1.234375 0.1875q-0.515625 0.0625 -0.9375 0.0625q-1.34375 0 -2.140625 -0.546875q-0.796875 -0.5625 -1.0 -1.59375l-0.09375 -1.015625q-1.140625 1.65625 -2.859375 2.4375q-1.71875 0.78125 -3.828125 0.78125q-2.5625 0 -3.90625 -1.625q-1.34375 -1.625 -1.34375 -4.734375zm20.1734 -17.3125l5.109375 0l0 17.375q0 1.0625 0.375 1.515625q0.390625 0.4375 1.09375 0.4375q0.484375 0 0.984375 -0.140625q0.5 -0.140625 0.875 -0.34375l0.671875 3.84375q-0.953125 0.453125 -2.203125 0.703125q-1.25 0.25 -2.34375 0.25q-2.171875 0 -3.375 -1.15625q-1.1875 -1.171875 -1.1875 -3.3125l0 -19.171875zm10.782532 23.359375l0 -16.796875l5.109375 0l0 16.796875l-5.109375 0zm0 -18.71875l0 -4.640625l5.109375 0l0 4.640625l-5.109375 0zm24.827515 18.71875l-5.125 0l0 -9.4375q0 -1.671875 -0.625 -2.421875q-0.625 -0.75 -1.640625 -0.75q-0.703125 0 -1.4375 0.390625q-0.734375 0.375 -1.328125 1.046875q-0.59375 0.671875 -0.921875 1.546875l0 9.625l-5.109375 0l0 -16.796875l4.609375 0l0 2.8125q0.640625 -0.984375 1.59375 -1.6875q0.953125 -0.71875 2.203125 -1.078125q1.25 -0.375 2.71875 -0.375q1.640625 0 2.640625 0.59375q1.015625 0.59375 1.53125 1.5625q0.53125 0.953125 0.703125 2.0625q0.1875 1.09375 0.1875 2.15625l0 10.75zm11.258789 0l0 -22.71875l9.703125 0q1.625 0 2.984375 0.65625q1.359375 0.65625 2.34375 1.765625q1.0 1.09375 1.546875 2.46875q0.546875 1.375 0.546875 2.8125q0 1.953125 -0.921875 3.71875q-0.90625 1.765625 -2.53125 2.875q-1.609375 1.09375 -3.8125 1.09375l-4.609375 0l0 7.328125l-5.25 0zm5.25 -11.90625l4.296875 0q0.59375 0 1.109375 -0.34375q0.515625 -0.359375 0.828125 -1.0625q0.328125 -0.703125 0.328125 -1.734375q0 -1.046875 -0.375 -1.734375q-0.359375 -0.6875 -0.921875 -1.0q-0.5625 -0.328125 -1.171875 -0.328125l-4.09375 0l0 6.203125zm14.10791 5.859375l0 -10.75l5.125 0l0 9.625q0 1.546875 0.609375 2.359375q0.609375 0.8125 1.734375 0.8125q0.703125 0 1.34375 -0.234375q0.640625 -0.25 1.234375 -0.78125q0.609375 -0.546875 1.09375 -1.421875l0 -10.359375l5.125 0l0 11.09375q0 0.78125 0.234375 1.09375q0.25 0.296875 0.84375 0.359375l0 4.25q-0.703125 0.125 -1.234375 0.1875q-0.515625 0.0625 -0.9375 0.0625q-1.34375 0 -2.140625 -0.546875q-0.796875 -0.5625 -1.0 -1.59375l-0.09375 -1.015625q-1.140625 1.65625 -2.859375 2.4375q-1.71875 0.78125 -3.828125 0.78125q-2.5625 0 -3.90625 -1.625q-1.34375 -1.625 -1.34375 -4.734375zm46.782776 6.046875l-5.109375 0l0 -9.4375q0 -1.640625 -0.609375 -2.40625q-0.609375 -0.765625 -1.5625 -0.765625q-1.03125 0 -2.03125 0.84375q-0.984375 0.828125 -1.40625 2.140625l0 9.625l-5.109375 0l0 -9.4375q0 -1.671875 -0.609375 -2.421875q-0.609375 -0.75 -1.578125 -0.75q-0.984375 0 -1.984375 0.84375q-0.984375 0.828125 -1.4375 2.140625l0 9.625l-5.109375 0l0 -16.796875l4.609375 0l0 2.8125q0.921875 -1.5 2.5 -2.3125q1.59375 -0.828125 3.703125 -0.828125q2.078125 0 3.1875 0.984375q1.125 0.96875 1.453125 2.28125q0.953125 -1.5625 2.53125 -2.40625q1.59375 -0.859375 3.578125 -0.859375q1.59375 0 2.578125 0.59375q1.0 0.59375 1.515625 1.5625q0.515625 0.953125 0.703125 2.0625q0.1875 1.09375 0.1875 2.15625l0 10.75zm13.99823 0.3125q-1.890625 0 -3.296875 -0.8125q-1.40625 -0.8125 -2.21875 -2.21875l0 9.53125l-5.109375 0l0 -23.609375l4.4375 0l0 2.71875q0.9375 -1.4375 2.34375 -2.234375q1.40625 -0.8125 3.296875 -0.8125q1.6875 0 3.109375 0.671875q1.4375 0.671875 2.484375 1.859375q1.0625 1.1875 1.625 2.765625q0.578125 1.5625 0.578125 3.375q0 2.5 -0.921875 4.484375q-0.921875 1.984375 -2.578125 3.140625q-1.640625 1.140625 -3.75 1.140625zm-1.734375 -4.3125q0.828125 0 1.515625 -0.359375q0.6875 -0.375 1.203125 -0.984375q0.515625 -0.609375 0.78125 -1.421875q0.28125 -0.8125 0.28125 -1.71875q0 -0.921875 -0.3125 -1.6875q-0.296875 -0.765625 -0.84375 -1.359375q-0.546875 -0.59375 -1.28125 -0.90625q-0.734375 -0.328125 -1.59375 -0.328125q-0.515625 0 -1.046875 0.15625q-0.53125 0.15625 -1.0 0.46875q-0.453125 0.296875 -0.84375 0.71875q-0.375 0.40625 -0.640625 0.953125l0 3.453125q0.359375 0.875 0.9375 1.546875q0.578125 0.671875 1.3125 1.078125q0.734375 0.390625 1.53125 0.390625z" fill-rule="nonzero"/></g><path fill="#134f5c" d="m988.8297 77.63854l0 0c0 -16.635818 13.486023 -30.12181 30.121826 -30.12181l61.89807 0l0 0c7.9888916 0 15.650391 3.1735382 21.299316 8.822475c5.649048 5.6489334 8.82251 13.310535 8.82251 21.299335l0 57.67765c0 16.635803 -13.485962 30.121796 -30.121826 30.121796l-61.89807 0l0 0c-16.635803 0 -30.121826 -13.485992 -30.121826 -30.121796z" fill-rule="evenodd"/><path fill="#edf7f1" d="m985.71857 353.50174l0 0c0 -16.635834 13.486023 -30.121826 30.121826 -30.121826l70.591 0l0 0c7.9887695 0 15.650391 3.1735535 21.299316 8.822479c5.648926 5.6489563 8.82251 13.310547 8.82251 21.299347l0 57.677643c0 16.635803 -13.485962 30.121796 -30.121826 30.121796l-70.591 0c-16.635803 0 -30.121826 -13.485992 -30.121826 -30.121796z" fill-rule="evenodd"/><g filter="url(#shadowFilter-p.2)"><use xlink:href="#p.2" transform="matrix(1.0 0.0 0.0 1.0 0.0 2.0)"/></g><defs><filter id="shadowFilter-p.2" filterUnits="userSpaceOnUse"><feGaussianBlur in="SourceAlpha" stdDeviation="2.0" result="blur"/><feComponentTransfer in="blur" color-interpolation-filters="sRGB"><feFuncR type="linear" slope="0" intercept="0.92941177"/><feFuncG type="linear" slope="0" intercept="0.96862745"/><feFuncB type="linear" slope="0" intercept="0.94509804"/><feFuncA type="linear" slope="0.55" intercept="0"/></feComponentTransfer></filter></defs><g id="p.2"><path fill="#000000" fill-opacity="0.0" d="m492.4457 116.77559l324.50394 0l0 196.8189l-324.50394 0z" fill-rule="evenodd"/><path fill="#0e73a3" d="m503.96133 171.9036l0 -40.71875l14.6562805 0q4.265625 0 7.765625 0.875q3.515625 0.875 5.578125 3.0625q2.078125 2.1875 2.078125 6.203125q0 2.640625 -1.390625 5.234375q-1.375 2.59375 -3.75 3.546875l0 0.25q2.9375 0.8125 4.96875 3.125q2.046875 2.3125 2.046875 6.390625q0 4.203125 -2.203125 6.875q-2.1875 2.65625 -5.828125 3.90625q-3.625 1.25 -8.015625 1.25l-15.9062805 0zm10.7656555 -8.265625l4.390625 0q3.203125 0 4.734375 -1.125q1.53125 -1.140625 1.53125 -3.390625q0 -2.25 -1.53125 -3.1875q-1.53125 -0.953125 -4.734375 -0.953125l-4.390625 0l0 8.65625zm0 -16.546875l3.640625 0q2.625 0 3.875 -1.125q1.265625 -1.125 1.265625 -3.015625q0 -1.875 -1.265625 -2.6875q-1.25 -0.8125 -3.875 -0.8125l-3.640625 0l0 7.640625zm27.579895 24.8125l0 -40.71875l10.765625 0l0 31.703125l15.421875 0l0 9.015625l-26.1875 0zm47.85736 0.75q-5.625 0 -9.890625 -2.53125q-4.265625 -2.546875 -6.65625 -7.296875q-2.375 -4.765625 -2.375 -11.46875q0 -6.703125 2.375 -11.375q2.390625 -4.671875 6.65625 -7.109375q4.265625 -2.453125 9.890625 -2.453125q5.640625 0 9.90625 2.453125q4.265625 2.4375 6.640625 7.109375q2.375 4.671875 2.375 11.375q0 6.703125 -2.375 11.46875q-2.375 4.75 -6.640625 7.296875q-4.265625 2.53125 -9.90625 2.53125zm0 -9.265625q2.453125 0 4.234375 -1.46875q1.78125 -1.484375 2.71875 -4.171875q0.953125 -2.703125 0.953125 -6.390625q0 -3.703125 -0.953125 -6.296875q-0.9375 -2.609375 -2.71875 -3.984375q-1.78125 -1.375 -4.234375 -1.375q-2.4375 0 -4.234375 1.375q-1.78125 1.375 -2.71875 3.984375q-0.9375 2.59375 -0.9375 6.296875q0 3.6875 0.9375 6.390625q0.9375 2.6875 2.71875 4.171875q1.796875 1.46875 4.234375 1.46875zm43.358093 9.265625q-5.625 0 -9.890625 -2.53125q-4.265625 -2.546875 -6.65625 -7.296875q-2.375 -4.765625 -2.375 -11.46875q0 -6.703125 2.375 -11.375q2.390625 -4.671875 6.65625 -7.109375q4.265625 -2.453125 9.890625 -2.453125q5.640625 0 9.90625 2.453125q4.265625 2.4375 6.640625 7.109375q2.375 4.671875 2.375 11.375q0 6.703125 -2.375 11.46875q-2.375 4.75 -6.640625 7.296875q-4.265625 2.53125 -9.90625 2.53125zm0 -9.265625q2.453125 0 4.234375 -1.46875q1.78125 -1.484375 2.71875 -4.171875q0.953125 -2.703125 0.953125 -6.390625q0 -3.703125 -0.953125 -6.296875q-0.9375 -2.609375 -2.71875 -3.984375q-1.78125 -1.375 -4.234375 -1.375q-2.4375 0 -4.234375 1.375q-1.78125 1.375 -2.71875 3.984375q-0.9375 2.59375 -0.9375 6.296875q0 3.6875 0.9375 6.390625q0.9375 2.6875 2.71875 4.171875q1.796875 1.46875 4.234375 1.46875zm26.201782 8.515625l0 -40.71875l12.03125 0q6.203125 0 10.921875 2.03125q4.734375 2.03125 7.359375 6.484375q2.640625 4.453125 2.640625 11.65625q0 7.203125 -2.640625 11.75q-2.625 4.53125 -7.203125 6.671875q-4.5625 2.125 -10.453125 2.125l-12.65625 0zm10.765625 -8.640625l0.640625 0q2.9375 0 5.3125 -1.0q2.390625 -1.015625 3.796875 -3.578125q1.40625 -2.578125 1.40625 -7.328125q0 -4.765625 -1.40625 -7.234375q-1.40625 -2.484375 -3.796875 -3.390625q-2.375 -0.90625 -5.3125 -0.90625l-0.640625 0l0 23.4375z" fill-rule="nonzero"/><path fill="#0e73a3" d="m522.75824 232.8136q-5.703125 0 -10.375 -2.28125q-4.6719055 -2.296875 -7.4375305 -6.921875q-2.75 -4.640625 -2.75 -11.59375q0 -5.140625 1.625 -9.109375q1.640625 -3.984375 4.453125 -6.734375q2.828125 -2.765625 6.4844055 -4.171875q3.671875 -1.421875 7.75 -1.421875q4.5 0 7.8125 1.609375q3.328125 1.59375 5.46875 3.78125l-5.640625 6.890625q-1.5 -1.3125 -3.171875 -2.15625q-1.65625 -0.84375 -4.09375 -0.84375q-2.765625 0 -4.953125 1.40625q-2.1875 1.40625 -3.453125 4.046875q-1.25 2.625 -1.25 6.328125q0 3.8125 1.15625 6.484375q1.171875 2.65625 3.515625 4.046875q2.34375 1.375 5.984375 1.375q0.875 0 1.71875 -0.1875q0.84375 -0.1875 1.40625 -0.5625l0 -5.640625l-6.015625 0l0 -8.78125l15.546875 0l0 19.421875q-2.125 2.078125 -5.796875 3.546875q-3.671875 1.46875 -7.984375 1.46875zm21.678955 -0.75l0 -40.71875l10.765625 0l0 31.703125l15.421875 0l0 9.015625l-26.1875 0zm47.35736 0.75q-4.25 0 -7.453125 -1.25q-3.1875 -1.25 -5.296875 -3.75q-2.09375 -2.515625 -3.125 -6.359375q-1.03125 -3.859375 -1.03125 -9.0625l0 -21.046875l10.765625 0l0 22.296875q0 3.640625 0.65625 5.796875q0.671875 2.15625 2.015625 3.140625q1.34375 0.96875 3.46875 0.96875q2.140625 0 3.515625 -0.96875q1.375 -0.984375 2.0625 -3.140625q0.6875 -2.15625 0.6875 -5.796875l0 -22.296875l10.40625 0l0 21.046875q0 5.203125 -1.0 9.0625q-1.0 3.84375 -3.046875 6.359375q-2.03125 2.5 -5.203125 3.75q-3.15625 1.25 -7.421875 1.25zm43.120605 0q-5.203125 0 -9.625 -2.28125q-4.421875 -2.296875 -7.125 -6.921875q-2.6875 -4.640625 -2.6875 -11.59375q0 -5.140625 1.59375 -9.109375q1.609375 -3.984375 4.390625 -6.734375q2.796875 -2.765625 6.328125 -4.171875q3.546875 -1.421875 7.375 -1.421875q4.0625 0 7.28125 1.609375q3.234375 1.59375 5.375 3.78125l-5.640625 6.890625q-1.515625 -1.3125 -3.109375 -2.15625q-1.59375 -0.84375 -3.65625 -0.84375q-2.390625 0 -4.421875 1.40625q-2.03125 1.40625 -3.265625 4.046875q-1.21875 2.625 -1.21875 6.328125q0 3.8125 1.09375 6.484375q1.109375 2.65625 3.078125 4.046875q1.96875 1.375 4.609375 1.375q2.375 0 4.21875 -1.0625q1.859375 -1.078125 3.171875 -2.453125l5.640625 6.765625q-2.578125 3.015625 -6.03125 4.515625q-3.4375 1.5 -7.375 1.5zm33.694214 0q-5.625 0 -9.890625 -2.53125q-4.265625 -2.546875 -6.65625 -7.296875q-2.375 -4.765625 -2.375 -11.46875q0 -6.703125 2.375 -11.375q2.390625 -4.671875 6.65625 -7.109375q4.265625 -2.453125 9.890625 -2.453125q5.640625 0 9.90625 2.453125q4.265625 2.4375 6.640625 7.109375q2.375 4.671875 2.375 11.375q0 6.703125 -2.375 11.46875q-2.375 4.75 -6.640625 7.296875q-4.265625 2.53125 -9.90625 2.53125zm0 -9.265625q2.453125 0 4.234375 -1.46875q1.78125 -1.484375 2.71875 -4.171875q0.953125 -2.703125 0.953125 -6.390625q0 -3.703125 -0.953125 -6.296875q-0.9375 -2.609375 -2.71875 -3.984375q-1.78125 -1.375 -4.234375 -1.375q-2.4375 0 -4.234375 1.375q-1.78125 1.375 -2.71875 3.984375q-0.9375 2.59375 -0.9375 6.296875q0 3.6875 0.9375 6.390625q0.9375 2.6875 2.71875 4.171875q1.796875 1.46875 4.234375 1.46875zm39.108032 9.265625q-3.828125 0 -7.96875 -1.4375q-4.125 -1.4375 -7.453125 -4.390625l6.140625 -7.390625q2.203125 1.75 4.734375 2.859375q2.53125 1.09375 4.796875 1.09375q2.4375 0 3.53125 -0.75q1.109375 -0.765625 1.109375 -2.140625q0 -1.0 -0.671875 -1.59375q-0.65625 -0.59375 -1.875 -1.125q-1.21875 -0.53125 -2.96875 -1.21875l-5.078125 -2.140625q-2.1875 -0.875 -4.078125 -2.40625q-1.875 -1.53125 -3.0 -3.75q-1.125 -2.234375 -1.125 -5.1875q0 -3.5 1.9375 -6.34375q1.9375 -2.859375 5.34375 -4.578125q3.421875 -1.734375 7.875 -1.734375q3.515625 0 7.109375 1.359375q3.609375 1.34375 6.421875 4.09375l-5.390625 6.765625q-2.0625 -1.4375 -3.984375 -2.1875q-1.90625 -0.75 -4.15625 -0.75q-1.9375 0 -3.109375 0.6875q-1.15625 0.6875 -1.15625 2.0625q0 0.9375 0.71875 1.609375q0.734375 0.65625 2.109375 1.1875q1.375 0.53125 3.1875 1.28125l4.953125 1.9375q2.5625 1.0 4.3125 2.546875q1.765625 1.53125 2.703125 3.671875q0.9375 2.125 0.9375 4.9375q0 3.453125 -1.84375 6.4375q-1.84375 2.96875 -5.421875 4.78125q-3.5625 1.8125 -8.640625 1.8125zm22.431824 -0.75l0 -40.71875l26.3125 0l0 9.015625l-15.546875 0l0 6.390625l13.296875 0l0 9.015625l-13.296875 0l0 7.28125l16.171875 0l0 9.015625l-26.9375 0z" fill-rule="nonzero"/><path fill="#0e73a3" d="m521.63324 292.9736q-5.203125 0 -9.625 -2.28125q-4.4219055 -2.296875 -7.1250305 -6.921875q-2.6875 -4.640625 -2.6875 -11.59375q0 -5.140625 1.59375 -9.109375q1.609375 -3.984375 4.390625 -6.734375q2.796875 -2.765625 6.3281555 -4.171875q3.546875 -1.421875 7.375 -1.421875q4.0625 0 7.28125 1.609375q3.234375 1.59375 5.375 3.78125l-5.640625 6.890625q-1.515625 -1.3125 -3.109375 -2.15625q-1.59375 -0.84375 -3.65625 -0.84375q-2.390625 0 -4.421875 1.40625q-2.03125 1.40625 -3.265625 4.046875q-1.21875 2.625 -1.21875 6.328125q0 3.8125 1.09375 6.484375q1.109375 2.65625 3.078125 4.046875q1.96875 1.375 4.609375 1.375q2.375 0 4.21875 -1.0625q1.859375 -1.078125 3.171875 -2.453125l5.640625 6.765625q-2.578125 3.015625 -6.03125 4.515625q-3.4375 1.5 -7.375 1.5zm33.694214 0q-5.625 0 -9.890625 -2.53125q-4.265625 -2.546875 -6.65625 -7.296875q-2.375 -4.765625 -2.375 -11.46875q0 -6.703125 2.375 -11.375q2.390625 -4.671875 6.65625 -7.109375q4.265625 -2.453125 9.890625 -2.453125q5.640625 0 9.90625 2.453125q4.265625 2.4375 6.640625 7.109375q2.375 4.671875 2.375 11.375q0 6.703125 -2.375 11.46875q-2.375 4.75 -6.640625 7.296875q-4.265625 2.53125 -9.90625 2.53125zm0 -9.265625q2.453125 0 4.234375 -1.46875q1.78125 -1.484375 2.71875 -4.171875q0.953125 -2.703125 0.953125 -6.390625q0 -3.703125 -0.953125 -6.296875q-0.9375 -2.609375 -2.71875 -3.984375q-1.78125 -1.375 -4.234375 -1.375q-2.4375 0 -4.234375 1.375q-1.78125 1.375 -2.71875 3.984375q-0.9375 2.59375 -0.9375 6.296875q0 3.6875 0.9375 6.390625q0.9375 2.6875 2.71875 4.171875q1.796875 1.46875 4.234375 1.46875zm26.201782 8.515625l0 -40.71875l11.015625 0l9.03125 18.15625l3.890625 9.15625l0.25 0q-0.375 -3.328125 -0.890625 -7.546875q-0.5 -4.234375 -0.5 -8.0l0 -11.765625l10.28125 0l0 40.71875l-11.03125 0l-9.015625 -18.234375l-3.890625 -9.078125l-0.25 0q0.375 3.4375 0.875 7.609375q0.5 4.171875 0.5 7.921875l0 11.78125l-10.265625 0zm49.870605 0l0 -31.703125l-10.78125 0l0 -9.015625l32.328125 0l0 9.015625l-10.765625 0l0 31.703125l-10.78125 0zm27.572449 0l0 -40.71875l15.40625 0q4.390625 0 8.078125 1.15625q3.703125 1.15625 5.953125 4.046875q2.265625 2.875 2.265625 7.953125q0 4.875 -2.265625 7.953125q-2.25 3.0625 -5.953125 4.515625q-3.6875 1.4375 -8.078125 1.4375l-4.640625 0l0 13.65625l-10.765625 0zm21.921875 0l-8.453125 -16.484375l7.265625 -7.140625l13.21875 23.625l-12.03125 0zm-11.15625 -22.1875l3.890625 0q3.203125 0 4.859375 -1.375q1.65625 -1.375 1.65625 -4.0q0 -2.640625 -1.65625 -3.640625q-1.65625 -1.0 -4.859375 -1.0l-3.890625 0l0 10.015625zm45.864014 22.9375q-5.625 0 -9.890625 -2.53125q-4.265625 -2.546875 -6.65625 -7.296875q-2.375 -4.765625 -2.375 -11.46875q0 -6.703125 2.375 -11.375q2.390625 -4.671875 6.65625 -7.109375q4.265625 -2.453125 9.890625 -2.453125q5.640625 0 9.90625 2.453125q4.265625 2.4375 6.640625 7.109375q2.375 4.671875 2.375 11.375q0 6.703125 -2.375 11.46875q-2.375 4.75 -6.640625 7.296875q-4.265625 2.53125 -9.90625 2.53125zm0 -9.265625q2.453125 0 4.234375 -1.46875q1.78125 -1.484375 2.71875 -4.171875q0.953125 -2.703125 0.953125 -6.390625q0 -3.703125 -0.953125 -6.296875q-0.9375 -2.609375 -2.71875 -3.984375q-1.78125 -1.375 -4.234375 -1.375q-2.4375 0 -4.234375 1.375q-1.78125 1.375 -2.71875 3.984375q-0.9375 2.59375 -0.9375 6.296875q0 3.6875 0.9375 6.390625q0.9375 2.6875 2.71875 4.171875q1.796875 1.46875 4.234375 1.46875zm26.201782 8.515625l0 -40.71875l10.765625 0l0 31.703125l15.421875 0l0 9.015625l-26.1875 0z" fill-rule="nonzero"/></g><path fill="#c7f6e3" d="m991.54333 215.57063l0 0c0 -16.635818 13.485962 -30.12181 30.121765 -30.12181l61.898132 0l0 0c7.9887695 0 15.650391 3.1735382 21.299316 8.822464c5.648926 5.648941 8.82251 13.310547 8.82251 21.299347l0 57.677628c0 16.635834 -13.485962 30.121826 -30.121826 30.121826l-61.898132 0l0 0c-16.635803 0 -30.121765 -13.485992 -30.121765 -30.121826z" fill-rule="evenodd"/><g filter="url(#shadowFilter-p.3)"><use xlink:href="#p.3" transform="matrix(1.0 0.0 0.0 1.0 0.0 2.0)"/></g><defs><filter id="shadowFilter-p.3" filterUnits="userSpaceOnUse"><feGaussianBlur in="SourceAlpha" stdDeviation="10.5" result="blur"/><feComponentTransfer in="blur" color-interpolation-filters="sRGB"><feFuncR type="linear" slope="0" intercept="0.27058825"/><feFuncG type="linear" slope="0" intercept="0.5058824"/><feFuncB type="linear" slope="0" intercept="0.5568628"/><feFuncA type="linear" slope="0.91" intercept="0"/></feComponentTransfer></filter></defs><g id="p.3"><path fill="#ffffff" d="m313.80188 297.85214l0 0c0 -23.413391 22.449219 -42.393707 50.141724 -42.393707l0 0c27.692505 0 50.141724 18.980316 50.141724 42.393707l0 0c0 23.413391 -22.449219 42.393677 -50.141724 42.393677l0 0c-27.692505 0 -50.141724 -18.980286 -50.141724 -42.393677z" fill-rule="evenodd"/><path stroke="#184e5b" stroke-width="8.0" stroke-linejoin="round" stroke-linecap="butt" d="m313.80188 297.85214l0 0c0 -23.413391 22.449219 -42.393707 50.141724 -42.393707l0 0c27.692505 0 50.141724 18.980316 50.141724 42.393707l0 0c0 23.413391 -22.449219 42.393677 -50.141724 42.393677l0 0c-27.692505 0 -50.141724 -18.980286 -50.141724 -42.393677z" fill-rule="evenodd"/></g><g filter="url(#shadowFilter-p.4)"><use xlink:href="#p.4" transform="matrix(1.0 0.0 0.0 1.0 0.0 2.0)"/></g><defs><filter id="shadowFilter-p.4" filterUnits="userSpaceOnUse"><feGaussianBlur in="SourceAlpha" stdDeviation="10.5" result="blur"/><feComponentTransfer in="blur" color-interpolation-filters="sRGB"><feFuncR type="linear" slope="0" intercept="0.27058825"/><feFuncG type="linear" slope="0" intercept="0.5058824"/><feFuncB type="linear" slope="0" intercept="0.5568628"/><feFuncA type="linear" slope="0.91" intercept="0"/></feComponentTransfer></filter></defs><g id="p.4"><path fill="#a9dcd0" d="m259.78223 200.97539l0 0c0 -37.12918 46.647003 -67.22835 104.188995 -67.22835l0 0c57.54196 0 104.188965 30.099167 104.188965 67.22835l0 0c0 37.129196 -46.647003 67.22835 -104.188965 67.22835l0 0c-57.541992 0 -104.188995 -30.099152 -104.188995 -67.22835z" fill-rule="evenodd"/><path stroke="#184e5b" stroke-width="8.0" stroke-linejoin="round" stroke-linecap="butt" d="m259.78223 200.97539l0 0c0 -37.12918 46.647003 -67.22835 104.188995 -67.22835l0 0c57.54196 0 104.188965 30.099167 104.188965 67.22835l0 0c0 37.129196 -46.647003 67.22835 -104.188965 67.22835l0 0c-57.541992 0 -104.188995 -30.099152 -104.188995 -67.22835z" fill-rule="evenodd"/></g><g filter="url(#shadowFilter-p.5)"><use xlink:href="#p.5" transform=""/></g><defs><filter id="shadowFilter-p.5" filterUnits="userSpaceOnUse"><feGaussianBlur in="SourceAlpha" stdDeviation="12.0" result="blur"/><feComponentTransfer in="blur" color-interpolation-filters="sRGB"><feFuncR type="linear" slope="0" intercept="0.21960784"/><feFuncG type="linear" slope="0" intercept="0.23921569"/><feFuncB type="linear" slope="0" intercept="0.36862746"/><feFuncA type="linear" slope="0.6" intercept="0"/></feComponentTransfer></filter></defs><g id="p.5"><path fill="#ffffff" d="m276.50656 169.98332l0 0c0 -20.012741 16.22351 -36.236282 36.236267 -36.236282l102.42508 0l0 0c9.610474 0 18.827301 3.817749 25.622925 10.613358c6.795624 6.795624 10.613342 16.012466 10.613342 25.622925l0 69.38571c0 20.012741 -16.22351 36.236282 -36.236267 36.236282l-102.42508 0l0 0c-20.012756 0 -36.236267 -16.223541 -36.236267 -36.236282z" fill-rule="evenodd"/><path stroke="#184e5b" stroke-width="8.0" stroke-linejoin="round" stroke-linecap="butt" d="m276.50656 169.98332l0 0c0 -20.012741 16.22351 -36.236282 36.236267 -36.236282l102.42508 0l0 0c9.610474 0 18.827301 3.817749 25.622925 10.613358c6.795624 6.795624 10.613342 16.012466 10.613342 25.622925l0 69.38571c0 20.012741 -16.22351 36.236282 -36.236267 36.236282l-102.42508 0l0 0c-20.012756 0 -36.236267 -16.223541 -36.236267 -36.236282z" fill-rule="evenodd"/></g><path fill="#184e5b" d="m302.7589 187.73302l0 0c0 -12.348007 10.01004 -22.358047 22.358032 -22.358047l77.70911 0l0 0c5.929718 0 11.616577 2.3555756 15.80954 6.548523c4.192932 4.1929474 6.548523 9.879791 6.548523 15.809525l0 42.811478c0 12.347992 -10.01004 22.358032 -22.358063 22.358032l-77.70911 0c-12.347992 0 -22.358032 -10.01004 -22.358032 -22.358032z" fill-rule="evenodd"/><path stroke="#184e5b" stroke-width="8.0" stroke-linejoin="round" stroke-linecap="butt" d="m302.7589 187.73302l0 0c0 -12.348007 10.01004 -22.358047 22.358032 -22.358047l77.70911 0l0 0c5.929718 0 11.616577 2.3555756 15.80954 6.548523c4.192932 4.1929474 6.548523 9.879791 6.548523 15.809525l0 42.811478c0 12.347992 -10.01004 22.358032 -22.358063 22.358032l-77.70911 0c-12.347992 0 -22.358032 -10.01004 -22.358032 -22.358032z" fill-rule="evenodd"/><path fill="#49a8d8" d="m269.0338 165.4988l0 0c0 -5.9490204 4.822632 -10.771652 10.771637 -10.771652l168.28348 0c2.8568115 0 5.5966187 1.1348724 7.616699 3.154953c2.0200806 2.0200653 3.1549377 4.7598877 3.1549377 7.616699l0 0l0 0c0 5.9490204 -4.822632 10.771652 -10.771637 10.771652l-168.28348 0c-5.949005 0 -10.771637 -4.822632 -10.771637 -10.771652z" fill-rule="evenodd"/><path stroke="#184e5b" stroke-width="8.0" stroke-linejoin="round" stroke-linecap="butt" d="m269.0338 165.4988l0 0c0 -5.9490204 4.822632 -10.771652 10.771637 -10.771652l168.28348 0c2.8568115 0 5.5966187 1.1348724 7.616699 3.154953c2.0200806 2.0200653 3.1549377 4.7598877 3.1549377 7.616699l0 0l0 0c0 5.9490204 -4.822632 10.771652 -10.771637 10.771652l-168.28348 0c-5.949005 0 -10.771637 -4.822632 -10.771637 -10.771652z" fill-rule="evenodd"/><path fill="#a9dcd0" d="m331.646 149.0762l0 0c0 -17.838364 14.460846 -32.299217 32.299194 -32.299217l0 0c8.566284 0 16.781738 3.4029388 22.83899 9.46022c6.0572815 6.057274 9.460236 14.272713 9.460236 22.838997l0 0c0 17.838348 -14.460846 32.29921 -32.299225 32.29921l0 0c-17.838348 0 -32.299194 -14.460861 -32.299194 -32.29921z" fill-rule="evenodd"/><path stroke="#184e5b" stroke-width="8.0" stroke-linejoin="round" stroke-linecap="butt" d="m331.646 149.0762l0 0c0 -17.838364 14.460846 -32.299217 32.299194 -32.299217l0 0c8.566284 0 16.781738 3.4029388 22.83899 9.46022c6.0572815 6.057274 9.460236 14.272713 9.460236 22.838997l0 0c0 17.838348 -14.460846 32.29921 -32.299225 32.29921l0 0c-17.838348 0 -32.299194 -14.460861 -32.299194 -32.29921z" fill-rule="evenodd"/><path fill="#ffffff" d="m347.6818 149.07603l0 0c0 -8.993103 7.290344 -16.283463 16.283447 -16.283463l0 0c4.3186646 0 8.460419 1.7155762 11.51416 4.7693176c3.0537415 3.0537415 4.7693176 7.195511 4.7693176 11.514145l0 0c0 8.993118 -7.290344 16.283463 -16.283478 16.283463l0 0c-8.993103 0 -16.283447 -7.290344 -16.283447 -16.283463z" fill-rule="evenodd"/><path stroke="#184e5b" stroke-width="8.0" stroke-linejoin="round" stroke-linecap="butt" d="m347.6818 149.07603l0 0c0 -8.993103 7.290344 -16.283463 16.283447 -16.283463l0 0c4.3186646 0 8.460419 1.7155762 11.51416 4.7693176c3.0537415 3.0537415 4.7693176 7.195511 4.7693176 11.514145l0 0c0 8.993118 -7.290344 16.283463 -16.283478 16.283463l0 0c-8.993103 0 -16.283447 -7.290344 -16.283447 -16.283463z" fill-rule="evenodd"/><path fill="#184e5b" d="m351.09665 294.84732c0.720459 0 1.3283691 0.24990845 1.8236694 0.74975586c0.4998474 0.4953308 0.74975586 1.1167297 0.74975586 1.8642273c0 0.74298096 -0.24990845 1.3711548 -0.74975586 1.884491c-0.4953003 0.5133362 -1.1032104 0.77001953 -1.8236694 0.77001953l-6.018158 0l0 -5.2684937zm-15.183868 -6.5180664l0 28.551147l9.16571 0l0 -10.415375l3.4042053 0l5.065796 10.415375l10.293671 0l-6.349121 -11.948669c1.7966919 -0.66641235 3.1655579 -1.7043762 4.1066895 -3.1138c0.9411011 -1.4139404 1.4116516 -2.992218 1.4116516 -4.734894c0 -1.5760193 -0.36697388 -3.0350037 -1.1009521 -4.376892c-0.7339783 -1.3418884 -1.828186 -2.4068298 -3.2826538 -3.1948547c-1.4499207 -0.7880249 -3.1993103 -1.1820374 -5.2481384 -1.1820374z" fill-rule="evenodd"/><path fill="#184e5b" d="m368.19897 288.32925l0 28.551147l23.815948 0l0 -7.3015747l-14.650269 0l0 -21.249573z" fill-rule="evenodd"/><path fill="#92ccf1" d="m319.2961 208.92056l0 0c0 -9.280136 5.6687317 -16.803162 12.661438 -16.803162l0 0c3.3580017 0 6.578491 1.77034 8.952972 4.9215393c2.3744812 3.1511993 3.708435 7.4251404 3.708435 11.881622l0 0c0 9.280121 -5.668701 16.803146 -12.661407 16.803146l0 0c-6.9927063 0 -12.661438 -7.5230255 -12.661438 -16.803146z" fill-rule="evenodd"/><path fill="#92ccf1" d="m383.30038 208.92056l0 0c0 -9.280136 5.668701 -16.803162 12.661407 -16.803162l0 0c3.3580017 0 6.578491 1.77034 8.952972 4.9215393c2.3744812 3.1511993 3.708435 7.4251404 3.708435 11.881622l0 0c0 9.280121 -5.668701 16.803146 -12.661407 16.803146l0 0c-6.9927063 0 -12.661407 -7.5230255 -12.661407 -16.803146z" fill-rule="evenodd"/><path fill="#92ccf1" d="m348.6956 227.11218c3.7608948 -1.8929901 26.480682 -1.8000641 30.395142 0.0032806396c3.9144592 1.8033295 -3.1474915 8.923752 -6.9083557 10.816742c-3.7608948 1.8929901 -11.742462 2.344513 -15.656921 0.5411682c-3.9144592 -1.8033447 -11.590729 -9.468201 -7.8298645 -11.361191z" fill-rule="evenodd"/><g filter="url(#shadowFilter-p.6)"><use xlink:href="#p.6" transform="matrix(1.0 0.0 0.0 1.0 0.0 2.0)"/></g><defs><filter id="shadowFilter-p.6" filterUnits="userSpaceOnUse"><feGaussianBlur in="SourceAlpha" stdDeviation="7.0" result="blur"/><feComponentTransfer in="blur" color-interpolation-filters="sRGB"><feFuncR type="linear" slope="0" intercept="0.05490196"/><feFuncG type="linear" slope="0" intercept="0.4509804"/><feFuncB type="linear" slope="0" intercept="0.6392157"/><feFuncA type="linear" slope="0.8" intercept="0"/></feComponentTransfer></filter></defs><g id="p.6"><path fill="#0e73a3" d="m774.2671 96.94789l0 0c4.229431 -6.5129547 12.924133 -8.342934 19.420044 -4.0873795l45.858337 30.042282l0 0c3.1194458 2.0435867 5.3043213 5.2459183 6.0739136 8.902519c0.7696533 3.6566162 0.06097412 7.4679565 -1.9700928 10.595581l-14.66394 22.580887c-4.229431 6.5129547 -12.924133 8.342926 -19.420044 4.087372l-45.858337 -30.042267c-6.4959717 -4.255554 -8.333252 -12.985153 -4.103821 -19.4981z" fill-rule="evenodd"/><path stroke="#f9fbfd" stroke-width="8.0" stroke-linejoin="round" stroke-linecap="butt" d="m774.2671 96.94789l0 0c4.229431 -6.5129547 12.924133 -8.342934 19.420044 -4.0873795l45.858337 30.042282l0 0c3.1194458 2.0435867 5.3043213 5.2459183 6.0739136 8.902519c0.7696533 3.6566162 0.06097412 7.4679565 -1.9700928 10.595581l-14.66394 22.580887c-4.229431 6.5129547 -12.924133 8.342926 -19.420044 4.087372l-45.858337 -30.042267c-6.4959717 -4.255554 -8.333252 -12.985153 -4.103821 -19.4981z" fill-rule="evenodd"/></g><g filter="url(#shadowFilter-p.7)"><use xlink:href="#p.7" transform="matrix(1.0 0.0 0.0 1.0 0.0 2.0)"/></g><defs><filter id="shadowFilter-p.7" filterUnits="userSpaceOnUse"><feGaussianBlur in="SourceAlpha" stdDeviation="7.0" result="blur"/><feComponentTransfer in="blur" color-interpolation-filters="sRGB"><feFuncR type="linear" slope="0" intercept="0.05490196"/><feFuncG type="linear" slope="0" intercept="0.4509804"/><feFuncB type="linear" slope="0" intercept="0.6392157"/><feFuncA type="linear" slope="0.8" intercept="0"/></feComponentTransfer></filter></defs><g id="p.7"><path fill="#0e73a3" d="m751.0729 102.38928l0 0c15.758057 -15.553429 33.70117 -23.037811 40.07715 -16.716843l0 0c3.0618286 3.0354385 2.9921875 8.913605 -0.19366455 16.341377c-3.185852 7.4277725 -9.226868 15.7967 -16.794128 23.265717l0 0c-15.758057 15.553429 -33.701233 23.037819 -40.07721 16.71685l0 0c-6.3759155 -6.3209686 1.2297974 -24.053673 16.987854 -39.6071z" fill-rule="evenodd"/><path stroke="#f9fbfd" stroke-width="8.0" stroke-linejoin="round" stroke-linecap="butt" d="m751.0729 102.38928l0 0c15.758057 -15.553429 33.70117 -23.037811 40.07715 -16.716843l0 0c3.0618286 3.0354385 2.9921875 8.913605 -0.19366455 16.341377c-3.185852 7.4277725 -9.226868 15.7967 -16.794128 23.265717l0 0c-15.758057 15.553429 -33.701233 23.037819 -40.07721 16.71685l0 0c-6.3759155 -6.3209686 1.2297974 -24.053673 16.987854 -39.6071z" fill-rule="evenodd"/></g><g filter="url(#shadowFilter-p.8)"><use xlink:href="#p.8" transform="matrix(1.0 0.0 0.0 1.0 0.0 2.0)"/></g><defs><filter id="shadowFilter-p.8" filterUnits="userSpaceOnUse"><feGaussianBlur in="SourceAlpha" stdDeviation="7.0" result="blur"/><feComponentTransfer in="blur" color-interpolation-filters="sRGB"><feFuncR type="linear" slope="0" intercept="0.05490196"/><feFuncG type="linear" slope="0" intercept="0.4509804"/><feFuncB type="linear" slope="0" intercept="0.6392157"/><feFuncA type="linear" slope="0.8" intercept="0"/></feComponentTransfer></filter></defs><g id="p.8"><path fill="#0e73a3" d="m816.6326 150.56389l0 0c6.6636353 -21.17572 18.937134 -36.008278 27.413696 -33.129433l0 0c4.0706177 1.3824692 6.703308 6.747917 7.3189087 14.915993c0.6156006 8.168091 -0.8363037 18.469727 -4.036255 28.638672l0 0c-6.6636353 21.17572 -18.937195 36.008286 -27.413757 33.12944l0 0c-8.4765625 -2.8788452 -9.946228 -22.378937 -3.2825928 -43.554672z" fill-rule="evenodd"/><path stroke="#f9fbfd" stroke-width="8.0" stroke-linejoin="round" stroke-linecap="butt" d="m816.6326 150.56389l0 0c6.6636353 -21.17572 18.937134 -36.008278 27.413696 -33.129433l0 0c4.0706177 1.3824692 6.703308 6.747917 7.3189087 14.915993c0.6156006 8.168091 -0.8363037 18.469727 -4.036255 28.638672l0 0c-6.6636353 21.17572 -18.937195 36.008286 -27.413757 33.12944l0 0c-8.4765625 -2.8788452 -9.946228 -22.378937 -3.2825928 -43.554672z" fill-rule="evenodd"/></g><path fill="#0e73a3" d="m772.9915 98.90109l0 0c3.5976562 -5.535988 10.991211 -7.0908203 16.513977 -3.4728165l49.38263 32.351067c2.6520996 1.7374268 4.5092773 4.4597626 5.162964 7.5681305c0.6536255 3.108368 0.05029297 6.3481445 -1.6773682 9.006622l-12.473511 19.19368c-3.5976562 5.53598 -10.991272 7.0908203 -16.513977 3.472824l-49.38263 -32.351074c-5.522705 -3.6179962 -7.083252 -11.038773 -3.4855957 -16.574753z" fill-rule="evenodd"/><path fill="#383d5e" d="m775.63477 122.26693l0 0c3.6600342 -3.1968231 9.218628 -2.8213043 12.415466 0.8387451l0 0c1.5351562 1.7576218 2.3092651 4.053093 2.1519775 6.381447c-0.15734863 2.3283386 -1.2330933 4.4988403 -2.9907227 6.034012l0 0c-3.6600342 3.1968231 -9.218628 2.821289 -12.415466 -0.8387451l0 0c-3.1968384 -3.6600494 -2.821289 -9.218643 0.8387451 -12.415459z" fill-rule="evenodd"/><path fill="#383d5e" d="m803.4507 139.87634l0 0c3.6600342 -3.1968231 9.218628 -2.8213043 12.415466 0.8387451l0 0c1.5351562 1.7576294 2.309204 4.0531006 2.1519165 6.381439c-0.1572876 2.328354 -1.2330933 4.4988556 -2.9907227 6.034027l0 0c-3.6600342 3.1968079 -9.218628 2.821289 -12.415405 -0.8387604l0 0c-3.1968384 -3.6600494 -2.82135 -9.218628 0.8387451 -12.415451z" fill-rule="evenodd"/><path fill="#383d5e" d="m767.9402 98.8585l6.8757935 4.329422l4.5462646 -7.2176895l6.4726562 4.075569l-4.5463257 7.2176895l6.8757935 4.329422l-4.076599 6.471977l-6.8757935 -4.3294296l-4.5463257 7.2176895l-6.472595 -4.075569l4.5463257 -7.217682l-6.8757935 -4.3294296z" fill-rule="evenodd"/><path fill="#383d5e" d="m833.2671 131.8728l0 0c0.71850586 -2.348938 3.2052002 -3.6706543 5.554077 -2.9521637l0 0c1.1279907 0.345047 2.072754 1.1240387 2.6264038 2.1656342c0.55358887 1.0415955 0.6708374 2.2604523 0.32574463 3.388443l0 0c-0.7184448 2.348938 -3.2051392 3.6706543 -5.554077 2.9521484l0 0c-2.348877 -0.7184906 -3.6706543 -3.2051392 -2.9521484 -5.554062z" fill-rule="evenodd"/><path fill="#383d5e" d="m839.15106 142.99768l0 0c0.71850586 -2.3489227 3.2051392 -3.670639 5.554077 -2.9521484l0 0c1.1279907 0.345047 2.0726929 1.1240387 2.6263428 2.1656342c0.5536499 1.0415955 0.6708374 2.2604523 0.32580566 3.388443l0 0c-0.71850586 2.348938 -3.2051392 3.6706543 -5.554077 2.9521484l0 0c-2.348938 -0.7184906 -3.6706543 -3.2051392 -2.9521484 -5.554077z" fill-rule="evenodd"/><path fill="#383d5e" d="m822.3134 137.80951l0 0c0.71850586 -2.3489227 3.2051392 -3.670639 5.554077 -2.9521484l0 0c1.1279907 0.345047 2.072754 1.1240387 2.6263428 2.1656342c0.5536499 1.0415955 0.6708374 2.2604523 0.32580566 3.388443l0 0c-0.71850586 2.348938 -3.2051392 3.6706543 -5.554077 2.9521484l0 0c-2.348938 -0.7184906 -3.6706543 -3.2051392 -2.9521484 -5.554077z" fill-rule="evenodd"/><path fill="#383d5e" d="m828.0261 148.88165l0 0c0.71850586 -2.348938 3.2052002 -3.6706543 5.554077 -2.9521484l0 0c1.1279907 0.34503174 2.072754 1.1240234 2.6264038 2.165619c0.55358887 1.0415955 0.6708374 2.2604523 0.32574463 3.3884583l0 0c-0.7184448 2.3489227 -3.2051392 3.670639 -5.554077 2.9521484l0 0c-2.348877 -0.71850586 -3.6706543 -3.2051544 -2.9521484 -5.554077z" fill-rule="evenodd"/><g filter="url(#shadowFilter-p.9)"><use xlink:href="#p.9" transform="matrix(1.0 0.0 0.0 1.0 0.0 2.0)"/></g><defs><filter id="shadowFilter-p.9" filterUnits="userSpaceOnUse"><feGaussianBlur in="SourceAlpha" stdDeviation="17.0" result="blur"/><feComponentTransfer in="blur" color-interpolation-filters="sRGB"><feFuncR type="linear" slope="0" intercept="0.05490196"/><feFuncG type="linear" slope="0" intercept="0.4509804"/><feFuncB type="linear" slope="0" intercept="0.6392157"/><feFuncA type="linear" slope="0.5" intercept="0"/></feComponentTransfer></filter></defs><g id="p.9"><path fill="#49a8d8" d="m170.84991 255.30759l0 0c4.8350067 -7.0741577 14.489136 -8.88913 21.56311 -4.053833l56.246017 38.445984c3.3970337 2.321991 5.7325897 5.8983765 6.492874 9.942413c0.76026917 4.0440063 -0.11701965 8.224426 -2.4388733 11.6215515l-16.763336 24.526672c-4.8350067 7.0741577 -14.489136 8.88913 -21.56311 4.053833l-56.246017 -38.445984c-7.0739746 -4.835266 -8.889008 -14.489807 -4.054001 -21.563965z" fill-rule="evenodd"/><path stroke="#f9fbfd" stroke-width="8.0" stroke-linejoin="round" stroke-linecap="butt" d="m170.84991 255.30759l0 0c4.8350067 -7.0741577 14.489136 -8.88913 21.56311 -4.053833l56.246017 38.445984c3.3970337 2.321991 5.7325897 5.8983765 6.492874 9.942413c0.76026917 4.0440063 -0.11701965 8.224426 -2.4388733 11.6215515l-16.763336 24.526672c-4.8350067 7.0741577 -14.489136 8.88913 -21.56311 4.053833l-56.246017 -38.445984c-7.0739746 -4.835266 -8.889008 -14.489807 -4.054001 -21.563965z" fill-rule="evenodd"/></g><path fill="#383d5e" d="m177.61801 265.07516l0 0c3.0487823 -4.4621887 9.136673 -5.606598 13.597702 -2.5561523l28.56578 19.533325l0 0c2.142273 1.4649048 3.6151886 3.7210083 4.094742 6.2720337c0.47955322 2.5510254 -0.07354736 5.1879883 -1.5376282 7.3308105l-8.683197 12.70871c-3.0487823 4.4621887 -9.136673 5.606598 -13.597702 2.5561523l-28.565796 -19.533325c-4.461029 -3.050476 -5.6058807 -9.1406555 -2.5570984 -13.602844z" fill-rule="evenodd"/><path fill="#0e73a3" d="m226.36652 299.55847l0 0c1.4711761 -2.153534 4.409027 -2.7058716 6.561859 -1.2337036l6.8198853 4.663574l0 0c1.0338287 0.7069702 1.7446747 1.7957764 1.9761353 3.026947c0.23147583 1.2311707 -0.03538513 2.5037842 -0.74186707 3.5379639l-4.190048 6.1334534c-1.4711761 2.1535034 -4.409012 2.7058716 -6.561859 1.2337036l-6.81987 -4.6636047l0 0c-2.1528473 -1.472168 -2.7054596 -4.411377 -1.2342834 -6.564911z" fill-rule="evenodd"/><path fill="#0e73a3" d="m158.15935 252.85893l0 0c0.7203064 -1.054245 2.158905 -1.324997 3.2131805 -0.6047516l3.0027008 2.0513153l0 0c0.5062866 0.34587097 0.85443115 0.8786926 0.9678345 1.4812317c0.11340332 0.6025543 -0.017211914 1.2254791 -0.3631134 1.7317352l-17.115341 25.049957c-0.7203064 1.0542297 -2.1588898 1.3250122 -3.2131653 0.60476685l-3.0027008 -2.0513306c-1.0542908 -0.72024536 -1.3250275 -2.1587524 -0.60472107 -3.2129822z" fill-rule="evenodd"/><path stroke="#0e73a3" stroke-width="8.0" stroke-linejoin="round" stroke-linecap="butt" d="m158.15935 252.85893l0 0c0.7203064 -1.054245 2.158905 -1.324997 3.2131805 -0.6047516l3.0027008 2.0513153l0 0c0.5062866 0.34587097 0.85443115 0.8786926 0.9678345 1.4812317c0.11340332 0.6025543 -0.017211914 1.2254791 -0.3631134 1.7317352l-17.115341 25.049957c-0.7203064 1.0542297 -2.1588898 1.3250122 -3.2131653 0.60476685l-3.0027008 -2.0513306c-1.0542908 -0.72024536 -1.3250275 -2.1587524 -0.60472107 -3.2129822z" fill-rule="evenodd"/><g filter="url(#shadowFilter-p.10)"><use xlink:href="#p.10" transform="matrix(1.0 0.0 0.0 1.0 0.0 2.0)"/></g><defs><filter id="shadowFilter-p.10" filterUnits="userSpaceOnUse"><feGaussianBlur in="SourceAlpha" stdDeviation="17.0" result="blur"/><feComponentTransfer in="blur" color-interpolation-filters="sRGB"><feFuncR type="linear" slope="0" intercept="0.05490196"/><feFuncG type="linear" slope="0" intercept="0.4509804"/><feFuncB type="linear" slope="0" intercept="0.6392157"/><feFuncA type="linear" slope="0.5" intercept="0"/></feComponentTransfer></filter></defs><g id="p.10"><path fill="#49a8d8" d="m146.46465 202.3006l0 0c4.2159576 -9.462585 15.0984955 -13.807648 24.306824 -9.704971l0 0c4.4220123 1.9701843 7.8586426 5.664795 9.553879 10.271072c1.6952362 4.6062927 1.5102234 9.746918 -0.5143585 14.291l0 0c-4.2159424 9.462585 -15.09848 13.807648 -24.306824 9.704971l0 0c-9.208328 -4.1026764 -13.255463 -15.099487 -9.03952 -24.562073z" fill-rule="evenodd"/><path stroke="#0e73a3" stroke-width="8.0" stroke-linejoin="round" stroke-linecap="butt" d="m146.46465 202.3006l0 0c4.2159576 -9.462585 15.0984955 -13.807648 24.306824 -9.704971l0 0c4.4220123 1.9701843 7.8586426 5.664795 9.553879 10.271072c1.6952362 4.6062927 1.5102234 9.746918 -0.5143585 14.291l0 0c-4.2159424 9.462585 -15.09848 13.807648 -24.306824 9.704971l0 0c-9.208328 -4.1026764 -13.255463 -15.099487 -9.03952 -24.562073z" fill-rule="evenodd"/></g><g filter="url(#shadowFilter-p.11)"><use xlink:href="#p.11" transform="matrix(1.0 0.0 0.0 1.0 0.0 2.0)"/></g><defs><filter id="shadowFilter-p.11" filterUnits="userSpaceOnUse"><feGaussianBlur in="SourceAlpha" stdDeviation="17.0" result="blur"/><feComponentTransfer in="blur" color-interpolation-filters="sRGB"><feFuncR type="linear" slope="0" intercept="0.05490196"/><feFuncG type="linear" slope="0" intercept="0.4509804"/><feFuncB type="linear" slope="0" intercept="0.6392157"/><feFuncA type="linear" slope="0.5" intercept="0"/></feComponentTransfer></filter></defs><g id="p.11"><path fill="#000000" fill-opacity="0.0" d="m149.60168 265.3839c-16.973846 0.0708313 -33.55552 -15.627686 -33.949272 -31.393738c-0.39376068 -15.766037 15.400383 -31.59964 30.802345 -31.66391" fill-rule="evenodd"/><path stroke="#0e73a3" stroke-width="8.0" stroke-linejoin="round" stroke-linecap="butt" d="m149.60168 265.3839c-16.973846 0.0708313 -33.55552 -15.627686 -33.949272 -31.393738c-0.39376068 -15.766037 15.400383 -31.59964 30.802345 -31.66391" fill-rule="evenodd"/></g></g></svg>